<svg xmlns="http://www.w3.org/2000/svg" width="160" height="24" viewBox="0 0 160 24" fill="none">
    <path fill-rule="evenodd" clip-rule="evenodd"
        d="M11.0667 0L5.6 5.6L0 11.2V18.1333H6.13333V24H13.4667L18.8 18.8L24 13.4667V6H18.2667V0H11.0667ZM18.1328 6.1333H6.13281L6.13333 18.1333L18.1328 18.1333V6.1333Z"
        fill="url(#paint0_linear_2148_2511)" />
    <path
        d="M5.33333 2.66667C5.33333 4.13943 4.13943 5.33333 2.66667 5.33333C1.19391 5.33333 0 4.13943 0 2.66667C0 1.19391 1.19391 0 2.66667 0C4.13943 0 5.33333 1.19391 5.33333 2.66667Z"
        fill="url(#paint0_linear_2148_2511)" />
    <path
        d="M23.9994 21.3333C23.9994 22.8061 22.8055 24 21.3327 24C19.8599 24 18.666 22.8061 18.666 21.3333C18.666 19.8605 19.8599 18.6666 21.3327 18.6666C22.8055 18.6666 23.9994 19.8605 23.9994 21.3333Z"
        fill="url(#paint0_linear_2148_2511)" />
    <path
        d="M39.6858 13.1667L39.2153 16.2H47.7718V18.7308H36L37.0195 12L36 5.26923H47.6847V7.8H39.2153L39.6858 10.8333H47.2316V13.1667H39.6858Z"
        fill="url(#paint0_linear_2148_2511)" />
    <path
        d="M64.5299 18.7308H61.3757L60.1384 15.8949H52.8888L51.6515 18.7308H48.4972L54.6054 5.26923H58.4218L64.5299 18.7308ZM56.5136 7.61154L53.978 13.4179H59.0579L56.5136 7.61154Z"
        fill="url(#paint0_linear_2148_2511)" />
    <path
        d="M67.6163 14.3333C67.6744 14.794 67.8632 15.1949 68.1826 15.5359C68.5079 15.8709 68.9407 16.1312 69.4809 16.3167C70.027 16.5021 70.6544 16.5949 71.363 16.5949C72.0427 16.5949 72.6323 16.5261 73.1319 16.3885C73.6373 16.2509 74.0235 16.0504 74.2908 15.7872C74.5638 15.5239 74.7003 15.2128 74.7003 14.8538C74.7003 14.5547 74.6248 14.3094 74.4737 14.1179C74.3285 13.9265 74.0787 13.7709 73.7244 13.6513C73.3759 13.5256 72.8937 13.4269 72.278 13.3551L69.6465 13.05C68.5196 12.9244 67.5988 12.7 66.8843 12.3769C66.1757 12.0538 65.6528 11.6291 65.3159 11.1026C64.9848 10.5761 64.8193 9.9359 64.8193 9.18205C64.8193 8.32051 65.069 7.57564 65.5686 6.94744C66.074 6.31923 66.7885 5.83761 67.7121 5.50256C68.6357 5.16752 69.7133 5 70.9448 5C72.1473 5 73.2219 5.18248 74.1688 5.54744C75.1214 5.91239 75.8737 6.42393 76.4256 7.08205C76.9774 7.74017 77.2795 8.5 77.3317 9.36154H74.3343C74.2821 8.96667 74.1107 8.62265 73.8202 8.32949C73.5298 8.03632 73.1319 7.80897 72.6265 7.64744C72.1269 7.4859 71.546 7.40513 70.8838 7.40513C70.2564 7.40513 69.7104 7.47094 69.2457 7.60256C68.781 7.73419 68.4237 7.92564 68.1739 8.17692C67.9241 8.42222 67.7993 8.71838 67.7993 9.06538C67.7993 9.3406 67.869 9.56795 68.0084 9.74744C68.1536 9.92692 68.3889 10.0765 68.7142 10.1962C69.0453 10.3158 69.4926 10.4115 70.056 10.4833L72.7833 10.8244C73.9974 10.9679 74.9588 11.1863 75.6675 11.4795C76.3762 11.7667 76.8874 12.1526 77.201 12.6372C77.5147 13.1218 77.6716 13.747 77.6716 14.5128C77.6716 15.4103 77.4073 16.197 76.8786 16.8731C76.35 17.5491 75.6036 18.0727 74.6393 18.4436C73.6808 18.8145 72.5713 19 71.3108 19C70.0212 19 68.8768 18.8056 67.8777 18.4167C66.8785 18.0278 66.0914 17.4803 65.5163 16.7744C64.9471 16.0684 64.645 15.2547 64.6101 14.3333H67.6163Z"
        fill="url(#paint0_linear_2148_2511)" />
    <path
        d="M89.3348 5.26923H92.6372L86.5116 13.2385V18.7308H83.549V13.2744L77.3974 5.26923H80.6998L85.0216 10.8872L89.3348 5.26923Z"
        fill="url(#paint0_linear_2148_2511)" />
    <path d="M93.1165 5.26923H106.466V7.96154H101.272V18.7308H98.3097V7.96154H93.1165V5.26923Z"
        fill="url(#paint0_linear_2148_2511)" />
    <path
        d="M118.565 10.5731V5.26923H121.527V18.7308H118.565V13.2654H111.062V18.7308H108.109V5.26923H111.062V10.5731H118.565Z"
        fill="url(#paint0_linear_2148_2511)" />
    <path d="M124.208 18.7308V5.26923H127.162V18.7308H124.208Z"
        fill="url(#paint0_linear_2148_2511)" />
    <path
        d="M140.925 15.2936V5.26923H143.791V18.7308H140.053L132.708 8.52692V18.7308H129.841V5.26923H133.675L140.925 15.2936Z"
        fill="url(#paint0_linear_2148_2511)" />
    <path
        d="M155.295 10.959L160 18.7308H156.637L153.413 13.3282L149.126 18.7308H146.468V5.26923H149.413V14.5846L156.663 5.26923H159.817L155.295 10.959Z"
        fill="url(#paint0_linear_2148_2511)" />
    <defs>
        <linearGradient id="paint0_linear_2148_2468" x1="3.14287" y1="-2.22353" x2="7.29822"
            y2="47.1439" gradientUnits="userSpaceOnUse">
            <stop offset="0.0001" stop-color="#FEA35C" />
            <stop offset="0.456208" stop-color="#F9559C" />
            <stop offset="0.923478" stop-color="#8731F1" />
        </linearGradient>
        <linearGradient id="paint0_linear_2148_2511" x1="-22.5882" y1="-3.27273" x2="-7.29492"
            y2="84.1253" gradientUnits="userSpaceOnUse">
            <stop stop-color="#8A60F3" />
            <stop offset="1" stop-color="#50388D" />
        </linearGradient>

    </defs>
</svg>