<svg width="1362" height="570" viewBox="0 0 1362 570" fill="none" xmlns="http://www.w3.org/2000/svg">
<g clip-path="url(#clip0_2148_938)">
<path d="M-154.545 -177.284H-200V-131.826M-154.545 -177.284V-131.826M-154.545 -177.284H-109.091M-200 -131.826H-154.545M-200 -131.826V-86.369M-154.545 -131.826V-86.369M-154.545 -131.826H-109.091M-109.091 -177.284V-131.826M-109.091 -177.284H-63.6364M-154.545 -86.369H-200M-154.545 -86.369V-40.9116M-154.545 -86.369H-109.091M-109.091 -131.826V-86.369M-109.091 -131.826H-63.6364M-200 -86.369V-40.9116M-154.545 -40.9116H-200M-154.545 -40.9116V4.54576M-154.545 -40.9116H-109.091M-109.091 -86.369V-40.9116M-109.091 -86.369H-63.6364M-200 -40.9116V4.54576M-154.545 4.54576H-200M-154.545 4.54576V50.0031M-154.545 4.54576H-109.091M-109.091 -40.9116V4.54576M-109.091 -40.9116H-63.6364M-200 4.54576V50.0031M-154.545 50.0031H-200M-154.545 50.0031V95.4605M-154.545 50.0031H-109.091M-109.091 4.54576V50.0031M-109.091 4.54576H-63.6364M-200 50.0031V95.4605M-154.545 95.4605H-200M-154.545 95.4605V140.918M-154.545 95.4605H-109.091M-109.091 50.0031V95.4605M-109.091 50.0031H-63.6364M-200 95.4605V140.918M-154.545 140.918H-200M-154.545 140.918V186.375M-154.545 140.918H-109.091M-109.091 95.4605V140.918M-109.091 95.4605H-63.6364M-200 140.918V186.375M-154.545 186.375H-200M-154.545 186.375V231.833M-154.545 186.375H-109.091M-109.091 140.918V186.375M-109.091 140.918H-63.6364M-200 186.375V231.833M-154.545 231.833H-200M-154.545 231.833V277.29M-154.545 231.833H-109.091M-109.091 186.375V231.833M-109.091 186.375H-63.6364M-200 231.833V277.29M-154.545 277.29H-200M-154.545 277.29V322.747M-154.545 277.29H-109.091M-109.091 231.833V277.29M-109.091 231.833H-63.6364M-200 277.29V322.747M-154.545 322.747H-200M-154.545 322.747V368.205M-154.545 322.747H-109.091M-109.091 277.29V322.747M-109.091 277.29H-63.6364M-200 322.747V368.205M-154.545 368.205H-200M-154.545 368.205V413.662M-154.545 368.205H-109.091M-109.091 322.747V368.205M-109.091 322.747H-63.6364M-200 368.205V413.662M-154.545 413.662H-200M-154.545 413.662V459.119M-154.545 413.662H-109.091M-109.091 368.205V413.662M-109.091 368.205H-63.6364M-200 413.662V459.119M-154.545 459.119H-200M-154.545 459.119V504.577M-154.545 459.119H-109.091M-109.091 413.662V459.119M-109.091 413.662H-63.6364M-200 459.119V504.577M-154.545 504.577H-200M-154.545 504.577V550.034M-154.545 504.577H-109.091M-109.091 459.119V504.577M-109.091 459.119H-63.6364M-200 504.577V550.034M-154.545 550.034H-200M-154.545 550.034V595.491M-154.545 550.034H-109.091M-109.091 504.577V550.034M-109.091 504.577H-63.6364M-200 550.034V595.491M-154.545 595.491H-200M-154.545 595.491V640.949M-154.545 595.491H-109.091M-109.091 550.034V595.491M-109.091 550.034H-63.6364M-200 595.491V640.949M-154.545 640.949H-200M-154.545 640.949V686.406M-154.545 640.949H-109.091M-109.091 595.491V640.949M-109.091 595.491H-63.6364M-200 640.949V686.406M-154.545 686.406H-200M-154.545 686.406V731.864M-154.545 686.406H-109.091M-109.091 640.949V686.406M-109.091 640.949H-63.6364M-200 686.406V731.864H-154.545M-154.545 731.864H-109.091M-109.091 686.406V731.864M-109.091 686.406H-63.6364M-109.091 731.864H-63.6364M-63.6364 -177.284V-131.826M-63.6364 -177.284H-18.1818M-63.6364 -131.826V-86.369M-63.6364 -131.826H-18.1818M-63.6364 -86.369V-40.9116M-63.6364 -86.369H-18.1818M-63.6364 -40.9116V4.54576M-63.6364 -40.9116H-18.1818M-63.6364 4.54576V50.0031M-63.6364 4.54576H-18.1818M-63.6364 50.0031V95.4605M-63.6364 50.0031H-18.1818M-63.6364 95.4605V140.918M-63.6364 95.4605H-18.1818M-63.6364 140.918V186.375M-63.6364 140.918H-18.1818M-63.6364 186.375V231.833M-63.6364 186.375H-18.1818M-63.6364 231.833V277.29M-63.6364 231.833H-18.1818M-63.6364 277.29V322.747M-63.6364 277.29H-18.1818M-63.6364 322.747V368.205M-63.6364 322.747H-18.1818M-63.6364 368.205V413.662M-63.6364 368.205H-18.1818M-63.6364 413.662V459.119M-63.6364 413.662H-18.1818M-63.6364 459.119V504.577M-63.6364 459.119H-18.1818M-63.6364 504.577V550.034M-63.6364 504.577H-18.1818M-63.6364 550.034V595.491M-63.6364 550.034H-18.1818M-63.6364 595.491V640.949M-63.6364 595.491H-18.1818M-63.6364 640.949V686.406M-63.6364 640.949H-18.1818M-63.6364 686.406V731.864M-63.6364 686.406H-18.1818M-63.6364 731.864H-18.1818M-18.1818 -177.284V-131.826M-18.1818 -177.284H27.2727M-18.1818 -131.826V-86.369M-18.1818 -131.826H27.2727M-18.1818 -86.369V-40.9116M-18.1818 -86.369H27.2727M-18.1818 -40.9116V4.54576M-18.1818 -40.9116H27.2727M-18.1818 4.54576V50.0031M-18.1818 4.54576H27.2727M-18.1818 50.0031V95.4605M-18.1818 50.0031H27.2727M-18.1818 95.4605V140.918M-18.1818 95.4605H27.2727M-18.1818 140.918V186.375M-18.1818 140.918H27.2727M-18.1818 186.375V231.833M-18.1818 186.375H27.2727M-18.1818 231.833V277.29M-18.1818 231.833H27.2727M-18.1818 277.29V322.747M-18.1818 277.29H27.2727M-18.1818 322.747V368.205M-18.1818 322.747H27.2727M-18.1818 368.205V413.662M-18.1818 368.205H27.2727M-18.1818 413.662V459.119M-18.1818 413.662H27.2727M-18.1818 459.119V504.577M-18.1818 459.119H27.2727M-18.1818 504.577V550.034M-18.1818 504.577H27.2727M-18.1818 550.034V595.491M-18.1818 550.034H27.2727M-18.1818 595.491V640.949M-18.1818 595.491H27.2727M-18.1818 640.949V686.406M-18.1818 640.949H27.2727M-18.1818 686.406V731.864M-18.1818 686.406H27.2727M-18.1818 731.864H27.2727M27.2727 -177.284V-131.826M27.2727 -177.284H72.7273M27.2727 -131.826V-86.369M27.2727 -131.826H72.7273M27.2727 -86.369V-40.9116M27.2727 -86.369H72.7273M27.2727 -40.9116V4.54576M27.2727 -40.9116H72.7273M27.2727 4.54576V50.0031M27.2727 4.54576H72.7273M27.2727 50.0031V95.4605M27.2727 50.0031H72.7273M27.2727 95.4605V140.918M27.2727 95.4605H72.7273M27.2727 140.918V186.375M27.2727 140.918H72.7273M27.2727 186.375V231.833M27.2727 186.375H72.7273M27.2727 231.833V277.29M27.2727 231.833H72.7273M27.2727 277.29V322.747M27.2727 277.29H72.7273M27.2727 322.747V368.205M27.2727 322.747H72.7273M27.2727 368.205V413.662M27.2727 368.205H72.7273M27.2727 413.662V459.119M27.2727 413.662H72.7273M27.2727 459.119V504.577M27.2727 459.119H72.7273M27.2727 504.577V550.034M27.2727 504.577H72.7273M27.2727 550.034V595.491M27.2727 550.034H72.7273M27.2727 595.491V640.949M27.2727 595.491H72.7273M27.2727 640.949V686.406M27.2727 640.949H72.7273M27.2727 686.406V731.864M27.2727 686.406H72.7273M27.2727 731.864H72.7273M72.7273 -177.284V-131.826M72.7273 -177.284H118.182M72.7273 -131.826V-86.369M72.7273 -131.826H118.182M72.7273 -86.369V-40.9116M72.7273 -86.369H118.182M72.7273 -40.9116V4.54576M72.7273 -40.9116H118.182M72.7273 4.54576V50.0031M72.7273 4.54576H118.182M72.7273 50.0031V95.4605M72.7273 50.0031H118.182M72.7273 95.4605V140.918M72.7273 95.4605H118.182M72.7273 140.918V186.375M72.7273 140.918H118.182M72.7273 186.375V231.833M72.7273 186.375H118.182M72.7273 231.833V277.29M72.7273 231.833H118.182M72.7273 277.29V322.747M72.7273 277.29H118.182M72.7273 322.747V368.205M72.7273 322.747H118.182M72.7273 368.205V413.662M72.7273 368.205H118.182M72.7273 413.662V459.119M72.7273 413.662H118.182M72.7273 459.119V504.577M72.7273 459.119H118.182M72.7273 504.577V550.034M72.7273 504.577H118.182M72.7273 550.034V595.491M72.7273 550.034H118.182M72.7273 595.491V640.949M72.7273 595.491H118.182M72.7273 640.949V686.406M72.7273 640.949H118.182M72.7273 686.406V731.864M72.7273 686.406H118.182M72.7273 731.864H118.182M118.182 -177.284V-131.826M118.182 -177.284H163.636M118.182 -131.826V-86.369M118.182 -131.826H163.636M118.182 -86.369V-40.9116M118.182 -86.369H163.636M118.182 -40.9116V4.54576M118.182 -40.9116H163.636M118.182 4.54576V50.0031M118.182 4.54576H163.636M118.182 50.0031V95.4605M118.182 50.0031H163.636M118.182 95.4605V140.918M118.182 95.4605H163.636M118.182 140.918V186.375M118.182 140.918H163.636M118.182 186.375V231.833M118.182 186.375H163.636M118.182 231.833V277.29M118.182 231.833H163.636M118.182 277.29V322.747M118.182 277.29H163.636M118.182 322.747V368.205M118.182 322.747H163.636M118.182 368.205V413.662M118.182 368.205H163.636M118.182 413.662V459.119M118.182 413.662H163.636M118.182 459.119V504.577M118.182 459.119H163.636M118.182 504.577V550.034M118.182 504.577H163.636M118.182 550.034V595.491M118.182 550.034H163.636M118.182 595.491V640.949M118.182 595.491H163.636M118.182 640.949V686.406M118.182 640.949H163.636M118.182 686.406V731.864M118.182 686.406H163.636M118.182 731.864H163.636M163.636 -177.284V-131.826M163.636 -177.284H209.091M163.636 -131.826V-86.369M163.636 -131.826H209.091M163.636 -86.369V-40.9116M163.636 -86.369H209.091M163.636 -40.9116V4.54576M163.636 -40.9116H209.091M163.636 4.54576V50.0031M163.636 4.54576H209.091M163.636 50.0031V95.4605M163.636 50.0031H209.091M163.636 95.4605V140.918M163.636 95.4605H209.091M163.636 140.918V186.375M163.636 140.918H209.091M163.636 186.375V231.833M163.636 186.375H209.091M163.636 231.833V277.29M163.636 231.833H209.091M163.636 277.29V322.747M163.636 277.29H209.091M163.636 322.747V368.205M163.636 322.747H209.091M163.636 368.205V413.662M163.636 368.205H209.091M163.636 413.662V459.119M163.636 413.662H209.091M163.636 459.119V504.577M163.636 459.119H209.091M163.636 504.577V550.034M163.636 504.577H209.091M163.636 550.034V595.491M163.636 550.034H209.091M163.636 595.491V640.949M163.636 595.491H209.091M163.636 640.949V686.406M163.636 640.949H209.091M163.636 686.406V731.864M163.636 686.406H209.091M163.636 731.864H209.091M209.091 -177.284V-131.826M209.091 -177.284H254.545M209.091 -131.826V-86.369M209.091 -131.826H254.545M209.091 -86.369V-40.9116M209.091 -86.369H254.545M209.091 -40.9116V4.54576M209.091 -40.9116H254.545M209.091 4.54576V50.0031M209.091 4.54576H254.545M209.091 50.0031V95.4605M209.091 50.0031H254.545M209.091 95.4605V140.918M209.091 95.4605H254.545M209.091 140.918V186.375M209.091 140.918H254.545M209.091 186.375V231.833M209.091 186.375H254.545M209.091 231.833V277.29M209.091 231.833H254.545M209.091 277.29V322.747M209.091 277.29H254.545M209.091 322.747V368.205M209.091 322.747H254.545M209.091 368.205V413.662M209.091 368.205H254.545M209.091 413.662V459.119M209.091 413.662H254.545M209.091 459.119V504.577M209.091 459.119H254.545M209.091 504.577V550.034M209.091 504.577H254.545M209.091 550.034V595.491M209.091 550.034H254.545M209.091 595.491V640.949M209.091 595.491H254.545M209.091 640.949V686.406M209.091 640.949H254.545M209.091 686.406V731.864M209.091 686.406H254.545M209.091 731.864H254.545M254.545 -177.284V-131.826M254.545 -177.284H300M254.545 -131.826V-86.369M254.545 -131.826H300M254.545 -86.369V-40.9116M254.545 -86.369H300M254.545 -40.9116V4.54576M254.545 -40.9116H300M254.545 4.54576V50.0031M254.545 4.54576H300M254.545 50.0031V95.4605M254.545 50.0031H300M254.545 95.4605V140.918M254.545 95.4605H300M254.545 140.918V186.375M254.545 140.918H300M254.545 186.375V231.833M254.545 186.375H300M254.545 231.833V277.29M254.545 231.833H300M254.545 277.29V322.747M254.545 277.29H300M254.545 322.747V368.205M254.545 322.747H300M254.545 368.205V413.662M254.545 368.205H300M254.545 413.662V459.119M254.545 413.662H300M254.545 459.119V504.577M254.545 459.119H300M254.545 504.577V550.034M254.545 504.577H300M254.545 550.034V595.491M254.545 550.034H300M254.545 595.491V640.949M254.545 595.491H300M254.545 640.949V686.406M254.545 640.949H300M254.545 686.406V731.864M254.545 686.406H300M254.545 731.864H300M300 -177.284V-131.826M300 -177.284H345.455M300 -131.826V-86.369M300 -131.826H345.455M300 -86.369V-40.9116M300 -86.369H345.455M300 -40.9116V4.54576M300 -40.9116H345.455M300 4.54576V50.0031M300 4.54576H345.455M300 50.0031V95.4605M300 50.0031H345.455M300 95.4605V140.918M300 95.4605H345.455M300 140.918V186.375M300 140.918H345.455M300 186.375V231.833M300 186.375H345.455M300 231.833V277.29M300 231.833H345.455M300 277.29V322.747M300 277.29H345.455M300 322.747V368.205M300 322.747H345.455M300 368.205V413.662M300 368.205H345.455M300 413.662V459.119M300 413.662H345.455M300 459.119V504.577M300 459.119H345.455M300 504.577V550.034M300 504.577H345.455M300 550.034V595.491M300 550.034H345.455M300 595.491V640.949M300 595.491H345.455M300 640.949V686.406M300 640.949H345.455M300 686.406V731.864M300 686.406H345.455M300 731.864H345.455M345.455 -177.284V-131.826M345.455 -177.284H390.909M345.455 -131.826V-86.369M345.455 -131.826H390.909M345.455 -86.369V-40.9116M345.455 -86.369H390.909M345.455 -40.9116V4.54576M345.455 -40.9116H390.909M345.455 4.54576V50.0031M345.455 4.54576H390.909M345.455 50.0031V95.4605M345.455 50.0031H390.909M345.455 95.4605V140.918M345.455 95.4605H390.909M345.455 140.918V186.375M345.455 140.918H390.909M345.455 186.375V231.833M345.455 186.375H390.909M345.455 231.833V277.29M345.455 231.833H390.909M345.455 277.29V322.747M345.455 277.29H390.909M345.455 322.747V368.205M345.455 322.747H390.909M345.455 368.205V413.662M345.455 368.205H390.909M345.455 413.662V459.119M345.455 413.662H390.909M345.455 459.119V504.577M345.455 459.119H390.909M345.455 504.577V550.034M345.455 504.577H390.909M345.455 550.034V595.491M345.455 550.034H390.909M345.455 595.491V640.949M345.455 595.491H390.909M345.455 640.949V686.406M345.455 640.949H390.909M345.455 686.406V731.864M345.455 686.406H390.909M345.455 731.864H390.909M390.909 -177.284V-131.826M390.909 -177.284H436.364M390.909 -131.826V-86.369M390.909 -131.826H436.364M390.909 -86.369V-40.9116M390.909 -86.369H436.364M390.909 -40.9116V4.54576M390.909 -40.9116H436.364M390.909 4.54576V50.0031M390.909 4.54576H436.364M390.909 50.0031V95.4605M390.909 50.0031H436.364M390.909 95.4605V140.918M390.909 95.4605H436.364M390.909 140.918V186.375M390.909 140.918H436.364M390.909 186.375V231.833M390.909 186.375H436.364M390.909 231.833V277.29M390.909 231.833H436.364M390.909 277.29V322.747M390.909 277.29H436.364M390.909 322.747V368.205M390.909 322.747H436.364M390.909 368.205V413.662M390.909 368.205H436.364M390.909 413.662V459.119M390.909 413.662H436.364M390.909 459.119V504.577M390.909 459.119H436.364M390.909 504.577V550.034M390.909 504.577H436.364M390.909 550.034V595.491M390.909 550.034H436.364M390.909 595.491V640.949M390.909 595.491H436.364M390.909 640.949V686.406M390.909 640.949H436.364M390.909 686.406V731.864M390.909 686.406H436.364M390.909 731.864H436.364M436.364 -177.284V-131.826M436.364 -177.284H481.818M436.364 -131.826V-86.369M436.364 -131.826H481.818M436.364 -86.369V-40.9116M436.364 -86.369H481.818M436.364 -40.9116V4.54576M436.364 -40.9116H481.818M436.364 4.54576V50.0031M436.364 4.54576H481.818M436.364 50.0031V95.4605M436.364 50.0031H481.818M436.364 95.4605V140.918M436.364 95.4605H481.818M436.364 140.918V186.375M436.364 140.918H481.818M436.364 186.375V231.833M436.364 186.375H481.818M436.364 231.833V277.29M436.364 231.833H481.818M436.364 277.29V322.747M436.364 277.29H481.818M436.364 322.747V368.205M436.364 322.747H481.818M436.364 368.205V413.662M436.364 368.205H481.818M436.364 413.662V459.119M436.364 413.662H481.818M436.364 459.119V504.577M436.364 459.119H481.818M436.364 504.577V550.034M436.364 504.577H481.818M436.364 550.034V595.491M436.364 550.034H481.818M436.364 595.491V640.949M436.364 595.491H481.818M436.364 640.949V686.406M436.364 640.949H481.818M436.364 686.406V731.864M436.364 686.406H481.818M436.364 731.864H481.818M481.818 -177.284V-131.826M481.818 -177.284H527.273M481.818 -131.826V-86.369M481.818 -131.826H527.273M481.818 -86.369V-40.9116M481.818 -86.369H527.273M481.818 -40.9116V4.54576M481.818 -40.9116H527.273M481.818 4.54576V50.0031M481.818 4.54576H527.273M481.818 50.0031V95.4605M481.818 50.0031H527.273M481.818 95.4605V140.918M481.818 95.4605H527.273M481.818 140.918V186.375M481.818 140.918H527.273M481.818 186.375V231.833M481.818 186.375H527.273M481.818 231.833V277.29M481.818 231.833H527.273M481.818 277.29V322.747M481.818 277.29H527.273M481.818 322.747V368.205M481.818 322.747H527.273M481.818 368.205V413.662M481.818 368.205H527.273M481.818 413.662V459.119M481.818 413.662H527.273M481.818 459.119V504.577M481.818 459.119H527.273M481.818 504.577V550.034M481.818 504.577H527.273M481.818 550.034V595.491M481.818 550.034H527.273M481.818 595.491V640.949M481.818 595.491H527.273M481.818 640.949V686.406M481.818 640.949H527.273M481.818 686.406V731.864M481.818 686.406H527.273M481.818 731.864H527.273M527.273 -177.284V-131.826M527.273 -177.284H572.727M527.273 -131.826V-86.369M527.273 -131.826H572.727M527.273 -86.369V-40.9116M527.273 -86.369H572.727M527.273 -40.9116V4.54576M527.273 -40.9116H572.727M527.273 4.54576V50.0031M527.273 4.54576H572.727M527.273 50.0031V95.4605M527.273 50.0031H572.727M527.273 95.4605V140.918M527.273 95.4605H572.727M527.273 140.918V186.375M527.273 140.918H572.727M527.273 186.375V231.833M527.273 186.375H572.727M527.273 231.833V277.29M527.273 231.833H572.727M527.273 277.29V322.747M527.273 277.29H572.727M527.273 322.747V368.205M527.273 322.747H572.727M527.273 368.205V413.662M527.273 368.205H572.727M527.273 413.662V459.119M527.273 413.662H572.727M527.273 459.119V504.577M527.273 459.119H572.727M527.273 504.577V550.034M527.273 504.577H572.727M527.273 550.034V595.491M527.273 550.034H572.727M527.273 595.491V640.949M527.273 595.491H572.727M527.273 640.949V686.406M527.273 640.949H572.727M527.273 686.406V731.864M527.273 686.406H572.727M527.273 731.864H572.727M572.727 -177.284V-131.826M572.727 -177.284H618.182M572.727 -131.826V-86.369M572.727 -131.826H618.182M572.727 -86.369V-40.9116M572.727 -86.369H618.182M572.727 -40.9116V4.54576M572.727 -40.9116H618.182M572.727 4.54576V50.0031M572.727 4.54576H618.182M572.727 50.0031V95.4605M572.727 50.0031H618.182M572.727 95.4605V140.918M572.727 95.4605H618.182M572.727 140.918V186.375M572.727 140.918H618.182M572.727 186.375V231.833M572.727 186.375H618.182M572.727 231.833V277.29M572.727 231.833H618.182M572.727 277.29V322.747M572.727 277.29H618.182M572.727 322.747V368.205M572.727 322.747H618.182M572.727 368.205V413.662M572.727 368.205H618.182M572.727 413.662V459.119M572.727 413.662H618.182M572.727 459.119V504.577M572.727 459.119H618.182M572.727 504.577V550.034M572.727 504.577H618.182M572.727 550.034V595.491M572.727 550.034H618.182M572.727 595.491V640.949M572.727 595.491H618.182M572.727 640.949V686.406M572.727 640.949H618.182M572.727 686.406V731.864M572.727 686.406H618.182M572.727 731.864H618.182M618.182 -177.284V-131.826M618.182 -177.284H663.636M618.182 -131.826V-86.369M618.182 -131.826H663.636M618.182 -86.369V-40.9116M618.182 -86.369H663.636M618.182 -40.9116V4.54576M618.182 -40.9116H663.636M618.182 4.54576V50.0031M618.182 4.54576H663.636M618.182 50.0031V95.4605M618.182 50.0031H663.636M618.182 95.4605V140.918M618.182 95.4605H663.636M618.182 140.918V186.375M618.182 140.918H663.636M618.182 186.375V231.833M618.182 186.375H663.636M618.182 231.833V277.29M618.182 231.833H663.636M618.182 277.29V322.747M618.182 277.29H663.636M618.182 322.747V368.205M618.182 322.747H663.636M618.182 368.205V413.662M618.182 368.205H663.636M618.182 413.662V459.119M618.182 413.662H663.636M618.182 459.119V504.577M618.182 459.119H663.636M618.182 504.577V550.034M618.182 504.577H663.636M618.182 550.034V595.491M618.182 550.034H663.636M618.182 595.491V640.949M618.182 595.491H663.636M618.182 640.949V686.406M618.182 640.949H663.636M618.182 686.406V731.864M618.182 686.406H663.636M618.182 731.864H663.636M663.636 -177.284V-131.826M663.636 -177.284H709.091M663.636 -131.826V-86.369M663.636 -131.826H709.091M663.636 -86.369V-40.9116M663.636 -86.369H709.091M663.636 -40.9116V4.54576M663.636 -40.9116H709.091M663.636 4.54576V50.0031M663.636 4.54576H709.091M663.636 50.0031V95.4605M663.636 50.0031H709.091M663.636 95.4605V140.918M663.636 95.4605H709.091M663.636 140.918V186.375M663.636 140.918H709.091M663.636 186.375V231.833M663.636 186.375H709.091M663.636 231.833V277.29M663.636 231.833H709.091M663.636 277.29V322.747M663.636 277.29H709.091M663.636 322.747V368.205M663.636 322.747H709.091M663.636 368.205V413.662M663.636 368.205H709.091M663.636 413.662V459.119M663.636 413.662H709.091M663.636 459.119V504.577M663.636 459.119H709.091M663.636 504.577V550.034M663.636 504.577H709.091M663.636 550.034V595.491M663.636 550.034H709.091M663.636 595.491V640.949M663.636 595.491H709.091M663.636 640.949V686.406M663.636 640.949H709.091M663.636 686.406V731.864M663.636 686.406H709.091M663.636 731.864H709.091M709.091 -177.284V-131.826M709.091 -177.284H754.545M709.091 -131.826V-86.369M709.091 -131.826H754.545M709.091 -86.369V-40.9116M709.091 -86.369H754.545M709.091 -40.9116V4.54576M709.091 -40.9116H754.545M709.091 4.54576V50.0031M709.091 4.54576H754.545M709.091 50.0031V95.4605M709.091 50.0031H754.545M709.091 95.4605V140.918M709.091 95.4605H754.545M709.091 140.918V186.375M709.091 140.918H754.545M709.091 186.375V231.833M709.091 186.375H754.545M709.091 231.833V277.29M709.091 231.833H754.545M709.091 277.29V322.747M709.091 277.29H754.545M709.091 322.747V368.205M709.091 322.747H754.545M709.091 368.205V413.662M709.091 368.205H754.545M709.091 413.662V459.119M709.091 413.662H754.545M709.091 459.119V504.577M709.091 459.119H754.545M709.091 504.577V550.034M709.091 504.577H754.545M709.091 550.034V595.491M709.091 550.034H754.545M709.091 595.491V640.949M709.091 595.491H754.545M709.091 640.949V686.406M709.091 640.949H754.545M709.091 686.406V731.864M709.091 686.406H754.545M709.091 731.864H754.545M754.545 -177.284V-131.826M754.545 -177.284H800M754.545 -131.826V-86.369M754.545 -131.826H800M754.545 -86.369V-40.9116M754.545 -86.369H800M754.545 -40.9116V4.54576M754.545 -40.9116H800M754.545 4.54576V50.0031M754.545 4.54576H800M754.545 50.0031V95.4605M754.545 50.0031H800M754.545 95.4605V140.918M754.545 95.4605H800M754.545 140.918V186.375M754.545 140.918H800M754.545 186.375V231.833M754.545 186.375H800M754.545 231.833V277.29M754.545 231.833H800M754.545 277.29V322.747M754.545 277.29H800M754.545 322.747V368.205M754.545 322.747H800M754.545 368.205V413.662M754.545 368.205H800M754.545 413.662V459.119M754.545 413.662H800M754.545 459.119V504.577M754.545 459.119H800M754.545 504.577V550.034M754.545 504.577H800M754.545 550.034V595.491M754.545 550.034H800M754.545 595.491V640.949M754.545 595.491H800M754.545 640.949V686.406M754.545 640.949H800M754.545 686.406V731.864M754.545 686.406H800M754.545 731.864H800M800 -177.284V-131.826M800 -177.284H845.455M800 -131.826V-86.369M800 -131.826H845.455M800 -86.369V-40.9116M800 -86.369H845.455M800 -40.9116V4.54576M800 -40.9116H845.455M800 4.54576V50.0031M800 4.54576H845.455M800 50.0031V95.4605M800 50.0031H845.455M800 95.4605V140.918M800 95.4605H845.455M800 140.918V186.375M800 140.918H845.455M800 186.375V231.833M800 186.375H845.455M800 231.833V277.29M800 231.833H845.455M800 277.29V322.747M800 277.29H845.455M800 322.747V368.205M800 322.747H845.455M800 368.205V413.662M800 368.205H845.455M800 413.662V459.119M800 413.662H845.455M800 459.119V504.577M800 459.119H845.455M800 504.577V550.034M800 504.577H845.455M800 550.034V595.491M800 550.034H845.455M800 595.491V640.949M800 595.491H845.455M800 640.949V686.406M800 640.949H845.455M800 686.406V731.864M800 686.406H845.455M800 731.864H845.455M845.455 -177.284V-131.826M845.455 -177.284H890.909M845.455 -131.826V-86.369M845.455 -131.826H890.909M845.455 -86.369V-40.9116M845.455 -86.369H890.909M845.455 -40.9116V4.54576M845.455 -40.9116H890.909M845.455 4.54576V50.0031M845.455 4.54576H890.909M845.455 50.0031V95.4605M845.455 50.0031H890.909M845.455 95.4605V140.918M845.455 95.4605H890.909M845.455 140.918V186.375M845.455 140.918H890.909M845.455 186.375V231.833M845.455 186.375H890.909M845.455 231.833V277.29M845.455 231.833H890.909M845.455 277.29V322.747M845.455 277.29H890.909M845.455 322.747V368.205M845.455 322.747H890.909M845.455 368.205V413.662M845.455 368.205H890.909M845.455 413.662V459.119M845.455 413.662H890.909M845.455 459.119V504.577M845.455 459.119H890.909M845.455 504.577V550.034M845.455 504.577H890.909M845.455 550.034V595.491M845.455 550.034H890.909M845.455 595.491V640.949M845.455 595.491H890.909M845.455 640.949V686.406M845.455 640.949H890.909M845.455 686.406V731.864M845.455 686.406H890.909M845.455 731.864H890.909M890.909 -177.284V-131.826M890.909 -177.284H936.364M890.909 -131.826V-86.369M890.909 -131.826H936.364M890.909 -86.369V-40.9116M890.909 -86.369H936.364M890.909 -40.9116V4.54576M890.909 -40.9116H936.364M890.909 4.54576V50.0031M890.909 4.54576H936.364M890.909 50.0031V95.4605M890.909 50.0031H936.364M890.909 95.4605V140.918M890.909 95.4605H936.364M890.909 140.918V186.375M890.909 140.918H936.364M890.909 186.375V231.833M890.909 186.375H936.364M890.909 231.833V277.29M890.909 231.833H936.364M890.909 277.29V322.747M890.909 277.29H936.364M890.909 322.747V368.205M890.909 322.747H936.364M890.909 368.205V413.662M890.909 368.205H936.364M890.909 413.662V459.119M890.909 413.662H936.364M890.909 459.119V504.577M890.909 459.119H936.364M890.909 504.577V550.034M890.909 504.577H936.364M890.909 550.034V595.491M890.909 550.034H936.364M890.909 595.491V640.949M890.909 595.491H936.364M890.909 640.949V686.406M890.909 640.949H936.364M890.909 686.406V731.864M890.909 686.406H936.364M890.909 731.864H936.364M936.364 -177.284V-131.826M936.364 -177.284H981.818M936.364 -131.826V-86.369M936.364 -131.826H981.818M936.364 -86.369V-40.9116M936.364 -86.369H981.818M936.364 -40.9116V4.54576M936.364 -40.9116H981.818M936.364 4.54576V50.0031M936.364 4.54576H981.818M936.364 50.0031V95.4605M936.364 50.0031H981.818M936.364 95.4605V140.918M936.364 95.4605H981.818M936.364 140.918V186.375M936.364 140.918H981.818M936.364 186.375V231.833M936.364 186.375H981.818M936.364 231.833V277.29M936.364 231.833H981.818M936.364 277.29V322.747M936.364 277.29H981.818M936.364 322.747V368.205M936.364 322.747H981.818M936.364 368.205V413.662M936.364 368.205H981.818M936.364 413.662V459.119M936.364 413.662H981.818M936.364 459.119V504.577M936.364 459.119H981.818M936.364 504.577V550.034M936.364 504.577H981.818M936.364 550.034V595.491M936.364 550.034H981.818M936.364 595.491V640.949M936.364 595.491H981.818M936.364 640.949V686.406M936.364 640.949H981.818M936.364 686.406V731.864M936.364 686.406H981.818M936.364 731.864H981.818M981.818 -177.284V-131.826M981.818 -177.284H1027.27M981.818 -131.826V-86.369M981.818 -131.826H1027.27M981.818 -86.369V-40.9116M981.818 -86.369H1027.27M981.818 -40.9116V4.54576M981.818 -40.9116H1027.27M981.818 4.54576V50.0031M981.818 4.54576H1027.27M981.818 50.0031V95.4605M981.818 50.0031H1027.27M981.818 95.4605V140.918M981.818 95.4605H1027.27M981.818 140.918V186.375M981.818 140.918H1027.27M981.818 186.375V231.833M981.818 186.375H1027.27M981.818 231.833V277.29M981.818 231.833H1027.27M981.818 277.29V322.747M981.818 277.29H1027.27M981.818 322.747V368.205M981.818 322.747H1027.27M981.818 368.205V413.662M981.818 368.205H1027.27M981.818 413.662V459.119M981.818 413.662H1027.27M981.818 459.119V504.577M981.818 459.119H1027.27M981.818 504.577V550.034M981.818 504.577H1027.27M981.818 550.034V595.491M981.818 550.034H1027.27M981.818 595.491V640.949M981.818 595.491H1027.27M981.818 640.949V686.406M981.818 640.949H1027.27M981.818 686.406V731.864M981.818 686.406H1027.27M981.818 731.864H1027.27M1027.27 -177.284V-131.826M1027.27 -177.284H1072.73M1027.27 -131.826V-86.369M1027.27 -131.826H1072.73M1027.27 -86.369V-40.9116M1027.27 -86.369H1072.73M1027.27 -40.9116V4.54576M1027.27 -40.9116H1072.73M1027.27 4.54576V50.0031M1027.27 4.54576H1072.73M1027.27 50.0031V95.4605M1027.27 50.0031H1072.73M1027.27 95.4605V140.918M1027.27 95.4605H1072.73M1027.27 140.918V186.375M1027.27 140.918H1072.73M1027.27 186.375V231.833M1027.27 186.375H1072.73M1027.27 231.833V277.29M1027.27 231.833H1072.73M1027.27 277.29V322.747M1027.27 277.29H1072.73M1027.27 322.747V368.205M1027.27 322.747H1072.73M1027.27 368.205V413.662M1027.27 368.205H1072.73M1027.27 413.662V459.119M1027.27 413.662H1072.73M1027.27 459.119V504.577M1027.27 459.119H1072.73M1027.27 504.577V550.034M1027.27 504.577H1072.73M1027.27 550.034V595.491M1027.27 550.034H1072.73M1027.27 595.491V640.949M1027.27 595.491H1072.73M1027.27 640.949V686.406M1027.27 640.949H1072.73M1027.27 686.406V731.864M1027.27 686.406H1072.73M1027.27 731.864H1072.73M1072.73 -177.284V-131.826M1072.73 -177.284H1118.18M1072.73 -131.826V-86.369M1072.73 -131.826H1118.18M1072.73 -86.369V-40.9116M1072.73 -86.369H1118.18M1072.73 -40.9116V4.54576M1072.73 -40.9116H1118.18M1072.73 4.54576V50.0031M1072.73 4.54576H1118.18M1072.73 50.0031V95.4605M1072.73 50.0031H1118.18M1072.73 95.4605V140.918M1072.73 95.4605H1118.18M1072.73 140.918V186.375M1072.73 140.918H1118.18M1072.73 186.375V231.833M1072.73 186.375H1118.18M1072.73 231.833V277.29M1072.73 231.833H1118.18M1072.73 277.29V322.747M1072.73 277.29H1118.18M1072.73 322.747V368.205M1072.73 322.747H1118.18M1072.73 368.205V413.662M1072.73 368.205H1118.18M1072.73 413.662V459.119M1072.73 413.662H1118.18M1072.73 459.119V504.577M1072.73 459.119H1118.18M1072.73 504.577V550.034M1072.73 504.577H1118.18M1072.73 550.034V595.491M1072.73 550.034H1118.18M1072.73 595.491V640.949M1072.73 595.491H1118.18M1072.73 640.949V686.406M1072.73 640.949H1118.18M1072.73 686.406V731.864M1072.73 686.406H1118.18M1072.73 731.864H1118.18M1118.18 -177.284V-131.826M1118.18 -177.284H1163.64M1118.18 -131.826V-86.369M1118.18 -131.826H1163.64M1118.18 -86.369V-40.9116M1118.18 -86.369H1163.64M1118.18 -40.9116V4.54576M1118.18 -40.9116H1163.64M1118.18 4.54576V50.0031M1118.18 4.54576H1163.64M1118.18 50.0031V95.4605M1118.18 50.0031H1163.64M1118.18 95.4605V140.918M1118.18 95.4605H1163.64M1118.18 140.918V186.375M1118.18 140.918H1163.64M1118.18 186.375V231.833M1118.18 186.375H1163.64M1118.18 231.833V277.29M1118.18 231.833H1163.64M1118.18 277.29V322.747M1118.18 277.29H1163.64M1118.18 322.747V368.205M1118.18 322.747H1163.64M1118.18 368.205V413.662M1118.18 368.205H1163.64M1118.18 413.662V459.119M1118.18 413.662H1163.64M1118.18 459.119V504.577M1118.18 459.119H1163.64M1118.18 504.577V550.034M1118.18 504.577H1163.64M1118.18 550.034V595.491M1118.18 550.034H1163.64M1118.18 595.491V640.949M1118.18 595.491H1163.64M1118.18 640.949V686.406M1118.18 640.949H1163.64M1118.18 686.406V731.864M1118.18 686.406H1163.64M1118.18 731.864H1163.64M1163.64 -177.284V-131.826M1163.64 -177.284H1209.09M1163.64 -131.826V-86.369M1163.64 -131.826H1209.09M1163.64 -86.369V-40.9116M1163.64 -86.369H1209.09M1163.64 -40.9116V4.54576M1163.64 -40.9116H1209.09M1163.64 4.54576V50.0031M1163.64 4.54576H1209.09M1163.64 50.0031V95.4605M1163.64 50.0031H1209.09M1163.64 95.4605V140.918M1163.64 95.4605H1209.09M1163.64 140.918V186.375M1163.64 140.918H1209.09M1163.64 186.375V231.833M1163.64 186.375H1209.09M1163.64 231.833V277.29M1163.64 231.833H1209.09M1163.64 277.29V322.747M1163.64 277.29H1209.09M1163.64 322.747V368.205M1163.64 322.747H1209.09M1163.64 368.205V413.662M1163.64 368.205H1209.09M1163.64 413.662V459.119M1163.64 413.662H1209.09M1163.64 459.119V504.577M1163.64 459.119H1209.09M1163.64 504.577V550.034M1163.64 504.577H1209.09M1163.64 550.034V595.491M1163.64 550.034H1209.09M1163.64 595.491V640.949M1163.64 595.491H1209.09M1163.64 640.949V686.406M1163.64 640.949H1209.09M1163.64 686.406V731.864M1163.64 686.406H1209.09M1163.64 731.864H1209.09M1209.09 -177.284V-131.826M1209.09 -177.284H1254.55M1209.09 -131.826V-86.369M1209.09 -131.826H1254.55M1209.09 -86.369V-40.9116M1209.09 -86.369H1254.55M1209.09 -40.9116V4.54576M1209.09 -40.9116H1254.55M1209.09 4.54576V50.0031M1209.09 4.54576H1254.55M1209.09 50.0031V95.4605M1209.09 50.0031H1254.55M1209.09 95.4605V140.918M1209.09 95.4605H1254.55M1209.09 140.918V186.375M1209.09 140.918H1254.55M1209.09 186.375V231.833M1209.09 186.375H1254.55M1209.09 231.833V277.29M1209.09 231.833H1254.55M1209.09 277.29V322.747M1209.09 277.29H1254.55M1209.09 322.747V368.205M1209.09 322.747H1254.55M1209.09 368.205V413.662M1209.09 368.205H1254.55M1209.09 413.662V459.119M1209.09 413.662H1254.55M1209.09 459.119V504.577M1209.09 459.119H1254.55M1209.09 504.577V550.034M1209.09 504.577H1254.55M1209.09 550.034V595.491M1209.09 550.034H1254.55M1209.09 595.491V640.949M1209.09 595.491H1254.55M1209.09 640.949V686.406M1209.09 640.949H1254.55M1209.09 686.406V731.864M1209.09 686.406H1254.55M1209.09 731.864H1254.55M1254.55 -177.284V-131.826M1254.55 -177.284H1300M1254.55 -131.826V-86.369M1254.55 -131.826H1300M1254.55 -86.369V-40.9116M1254.55 -86.369H1300M1254.55 -40.9116V4.54576M1254.55 -40.9116H1300M1254.55 4.54576V50.0031M1254.55 4.54576H1300M1254.55 50.0031V95.4605M1254.55 50.0031H1300M1254.55 95.4605V140.918M1254.55 95.4605H1300M1254.55 140.918V186.375M1254.55 140.918H1300M1254.55 186.375V231.833M1254.55 186.375H1300M1254.55 231.833V277.29M1254.55 231.833H1300M1254.55 277.29V322.747M1254.55 277.29H1300M1254.55 322.747V368.205M1254.55 322.747H1300M1254.55 368.205V413.662M1254.55 368.205H1300M1254.55 413.662V459.119M1254.55 413.662H1300M1254.55 459.119V504.577M1254.55 459.119H1300M1254.55 504.577V550.034M1254.55 504.577H1300M1254.55 550.034V595.491M1254.55 550.034H1300M1254.55 595.491V640.949M1254.55 595.491H1300M1254.55 640.949V686.406M1254.55 640.949H1300M1254.55 686.406V731.864M1254.55 686.406H1300M1254.55 731.864H1300M1300 -177.284V-131.826M1300 -177.284H1345.45M1300 -131.826V-86.369M1300 -131.826H1345.45M1300 -86.369V-40.9116M1300 -86.369H1345.45M1300 -40.9116V4.54576M1300 -40.9116H1345.45M1300 4.54576V50.0031M1300 4.54576H1345.45M1300 50.0031V95.4605M1300 50.0031H1345.45M1300 95.4605V140.918M1300 95.4605H1345.45M1300 140.918V186.375M1300 140.918H1345.45M1300 186.375V231.833M1300 186.375H1345.45M1300 231.833V277.29M1300 231.833H1345.45M1300 277.29V322.747M1300 277.29H1345.45M1300 322.747V368.205M1300 322.747H1345.45M1300 368.205V413.662M1300 368.205H1345.45M1300 413.662V459.119M1300 413.662H1345.45M1300 459.119V504.577M1300 459.119H1345.45M1300 504.577V550.034M1300 504.577H1345.45M1300 550.034V595.491M1300 550.034H1345.45M1300 595.491V640.949M1300 595.491H1345.45M1300 640.949V686.406M1300 640.949H1345.45M1300 686.406V731.864M1300 686.406H1345.45M1300 731.864H1345.45M1345.45 -177.284V-131.826M1345.45 -177.284H1390.91M1345.45 -131.826V-86.369M1345.45 -131.826H1390.91M1345.45 -86.369V-40.9116M1345.45 -86.369H1390.91M1345.45 -40.9116V4.54576M1345.45 -40.9116H1390.91M1345.45 4.54576V50.0031M1345.45 4.54576H1390.91M1345.45 50.0031V95.4605M1345.45 50.0031H1390.91M1345.45 95.4605V140.918M1345.45 95.4605H1390.91M1345.45 140.918V186.375M1345.45 140.918H1390.91M1345.45 186.375V231.833M1345.45 186.375H1390.91M1345.45 231.833V277.29M1345.45 231.833H1390.91M1345.45 277.29V322.747M1345.45 277.29H1390.91M1345.45 322.747V368.205M1345.45 322.747H1390.91M1345.45 368.205V413.662M1345.45 368.205H1390.91M1345.45 413.662V459.119M1345.45 413.662H1390.91M1345.45 459.119V504.577M1345.45 459.119H1390.91M1345.45 504.577V550.034M1345.45 504.577H1390.91M1345.45 550.034V595.491M1345.45 550.034H1390.91M1345.45 595.491V640.949M1345.45 595.491H1390.91M1345.45 640.949V686.406M1345.45 640.949H1390.91M1345.45 686.406V731.864M1345.45 686.406H1390.91M1345.45 731.864H1390.91M1390.91 -177.284V-131.826M1390.91 -177.284H1436.36M1390.91 -131.826V-86.369M1390.91 -131.826H1436.36M1390.91 -86.369V-40.9116M1390.91 -86.369H1436.36M1390.91 -40.9116V4.54576M1390.91 -40.9116H1436.36M1390.91 4.54576V50.0031M1390.91 4.54576H1436.36M1390.91 50.0031V95.4605M1390.91 50.0031H1436.36M1390.91 95.4605V140.918M1390.91 95.4605H1436.36M1390.91 140.918V186.375M1390.91 140.918H1436.36M1390.91 186.375V231.833M1390.91 186.375H1436.36M1390.91 231.833V277.29M1390.91 231.833H1436.36M1390.91 277.29V322.747M1390.91 277.29H1436.36M1390.91 322.747V368.205M1390.91 322.747H1436.36M1390.91 368.205V413.662M1390.91 368.205H1436.36M1390.91 413.662V459.119M1390.91 413.662H1436.36M1390.91 459.119V504.577M1390.91 459.119H1436.36M1390.91 504.577V550.034M1390.91 504.577H1436.36M1390.91 550.034V595.491M1390.91 550.034H1436.36M1390.91 595.491V640.949M1390.91 595.491H1436.36M1390.91 640.949V686.406M1390.91 640.949H1436.36M1390.91 686.406V731.864M1390.91 686.406H1436.36M1390.91 731.864H1436.36M1436.36 -177.284V-131.826M1436.36 -177.284H1481.82M1436.36 -131.826V-86.369M1436.36 -131.826H1481.82M1436.36 -86.369V-40.9116M1436.36 -86.369H1481.82M1436.36 -40.9116V4.54576M1436.36 -40.9116H1481.82M1436.36 4.54576V50.0031M1436.36 4.54576H1481.82M1436.36 50.0031V95.4605M1436.36 50.0031H1481.82M1436.36 95.4605V140.918M1436.36 95.4605H1481.82M1436.36 140.918V186.375M1436.36 140.918H1481.82M1436.36 186.375V231.833M1436.36 186.375H1481.82M1436.36 231.833V277.29M1436.36 231.833H1481.82M1436.36 277.29V322.747M1436.36 277.29H1481.82M1436.36 322.747V368.205M1436.36 322.747H1481.82M1436.36 368.205V413.662M1436.36 368.205H1481.82M1436.36 413.662V459.119M1436.36 413.662H1481.82M1436.36 459.119V504.577M1436.36 459.119H1481.82M1436.36 504.577V550.034M1436.36 504.577H1481.82M1436.36 550.034V595.491M1436.36 550.034H1481.82M1436.36 595.491V640.949M1436.36 595.491H1481.82M1436.36 640.949V686.406M1436.36 640.949H1481.82M1436.36 686.406V731.864M1436.36 686.406H1481.82M1436.36 731.864H1481.82M1481.82 -177.284V-131.826M1481.82 -177.284H1527.27M1481.82 -131.826V-86.369M1481.82 -131.826H1527.27M1481.82 -86.369V-40.9116M1481.82 -86.369H1527.27M1481.82 -40.9116V4.54576M1481.82 -40.9116H1527.27M1481.82 4.54576V50.0031M1481.82 4.54576H1527.27M1481.82 50.0031V95.4605M1481.82 50.0031H1527.27M1481.82 95.4605V140.918M1481.82 95.4605H1527.27M1481.82 140.918V186.375M1481.82 140.918H1527.27M1481.82 186.375V231.833M1481.82 186.375H1527.27M1481.82 231.833V277.29M1481.82 231.833H1527.27M1481.82 277.29V322.747M1481.82 277.29H1527.27M1481.82 322.747V368.205M1481.82 322.747H1527.27M1481.82 368.205V413.662M1481.82 368.205H1527.27M1481.82 413.662V459.119M1481.82 413.662H1527.27M1481.82 459.119V504.577M1481.82 459.119H1527.27M1481.82 504.577V550.034M1481.82 504.577H1527.27M1481.82 550.034V595.491M1481.82 550.034H1527.27M1481.82 595.491V640.949M1481.82 595.491H1527.27M1481.82 640.949V686.406M1481.82 640.949H1527.27M1481.82 686.406V731.864M1481.82 686.406H1527.27M1481.82 731.864H1527.27M1527.27 -177.284V-131.826M1527.27 -177.284H1572.73M1527.27 -131.826V-86.369M1527.27 -131.826H1572.73M1527.27 -86.369V-40.9116M1527.27 -86.369H1572.73M1527.27 -40.9116V4.54576M1527.27 -40.9116H1572.73M1527.27 4.54576V50.0031M1527.27 4.54576H1572.73M1527.27 50.0031V95.4605M1527.27 50.0031H1572.73M1527.27 95.4605V140.918M1527.27 95.4605H1572.73M1527.27 140.918V186.375M1527.27 140.918H1572.73M1527.27 186.375V231.833M1527.27 186.375H1572.73M1527.27 231.833V277.29M1527.27 231.833H1572.73M1527.27 277.29V322.747M1527.27 277.29H1572.73M1527.27 322.747V368.205M1527.27 322.747H1572.73M1527.27 368.205V413.662M1527.27 368.205H1572.73M1527.27 413.662V459.119M1527.27 413.662H1572.73M1527.27 459.119V504.577M1527.27 459.119H1572.73M1527.27 504.577V550.034M1527.27 504.577H1572.73M1527.27 550.034V595.491M1527.27 550.034H1572.73M1527.27 595.491V640.949M1527.27 595.491H1572.73M1527.27 640.949V686.406M1527.27 640.949H1572.73M1527.27 686.406V731.864M1527.27 686.406H1572.73M1527.27 731.864H1572.73M1572.73 -177.284V-131.826M1572.73 -177.284H1618.18M1572.73 -131.826V-86.369M1572.73 -131.826H1618.18M1572.73 -86.369V-40.9116M1572.73 -86.369H1618.18M1572.73 -40.9116V4.54576M1572.73 -40.9116H1618.18M1572.73 4.54576V50.0031M1572.73 4.54576H1618.18M1572.73 50.0031V95.4605M1572.73 50.0031H1618.18M1572.73 95.4605V140.918M1572.73 95.4605H1618.18M1572.73 140.918V186.375M1572.73 140.918H1618.18M1572.73 186.375V231.833M1572.73 186.375H1618.18M1572.73 231.833V277.29M1572.73 231.833H1618.18M1572.73 277.29V322.747M1572.73 277.29H1618.18M1572.73 322.747V368.205M1572.73 322.747H1618.18M1572.73 368.205V413.662M1572.73 368.205H1618.18M1572.73 413.662V459.119M1572.73 413.662H1618.18M1572.73 459.119V504.577M1572.73 459.119H1618.18M1572.73 504.577V550.034M1572.73 504.577H1618.18M1572.73 550.034V595.491M1572.73 550.034H1618.18M1572.73 595.491V640.949M1572.73 595.491H1618.18M1572.73 640.949V686.406M1572.73 640.949H1618.18M1572.73 686.406V731.864M1572.73 686.406H1618.18M1572.73 731.864H1618.18M1618.18 -177.284V-131.826M1618.18 -177.284H1663.64M1618.18 -131.826V-86.369M1618.18 -131.826H1663.64M1618.18 -86.369V-40.9116M1618.18 -86.369H1663.64M1618.18 -40.9116V4.54576M1618.18 -40.9116H1663.64M1618.18 4.54576V50.0031M1618.18 4.54576H1663.64M1618.18 50.0031V95.4605M1618.18 50.0031H1663.64M1618.18 95.4605V140.918M1618.18 95.4605H1663.64M1618.18 140.918V186.375M1618.18 140.918H1663.64M1618.18 186.375V231.833M1618.18 186.375H1663.64M1618.18 231.833V277.29M1618.18 231.833H1663.64M1618.18 277.29V322.747M1618.18 277.29H1663.64M1618.18 322.747V368.205M1618.18 322.747H1663.64M1618.18 368.205V413.662M1618.18 368.205H1663.64M1618.18 413.662V459.119M1618.18 413.662H1663.64M1618.18 459.119V504.577M1618.18 459.119H1663.64M1618.18 504.577V550.034M1618.18 504.577H1663.64M1618.18 550.034V595.491M1618.18 550.034H1663.64M1618.18 595.491V640.949M1618.18 595.491H1663.64M1618.18 640.949V686.406M1618.18 640.949H1663.64M1618.18 686.406V731.864M1618.18 686.406H1663.64M1618.18 731.864H1663.64M1663.64 -177.284V-131.826M1663.64 -177.284H1709.09M1663.64 -131.826V-86.369M1663.64 -131.826H1709.09M1663.64 -86.369V-40.9116M1663.64 -86.369H1709.09M1663.64 -40.9116V4.54576M1663.64 -40.9116H1709.09M1663.64 4.54576V50.0031M1663.64 4.54576H1709.09M1663.64 50.0031V95.4605M1663.64 50.0031H1709.09M1663.64 95.4605V140.918M1663.64 95.4605H1709.09M1663.64 140.918V186.375M1663.64 140.918H1709.09M1663.64 186.375V231.833M1663.64 186.375H1709.09M1663.64 231.833V277.29M1663.64 231.833H1709.09M1663.64 277.29V322.747M1663.64 277.29H1709.09M1663.64 322.747V368.205M1663.64 322.747H1709.09M1663.64 368.205V413.662M1663.64 368.205H1709.09M1663.64 413.662V459.119M1663.64 413.662H1709.09M1663.64 459.119V504.577M1663.64 459.119H1709.09M1663.64 504.577V550.034M1663.64 504.577H1709.09M1663.64 550.034V595.491M1663.64 550.034H1709.09M1663.64 595.491V640.949M1663.64 595.491H1709.09M1663.64 640.949V686.406M1663.64 640.949H1709.09M1663.64 686.406V731.864M1663.64 686.406H1709.09M1663.64 731.864H1709.09M1709.09 -177.284V-131.826M1709.09 -177.284H1754.55M1709.09 -131.826V-86.369M1709.09 -131.826H1754.55M1709.09 -86.369V-40.9116M1709.09 -86.369H1754.55M1709.09 -40.9116V4.54576M1709.09 -40.9116H1754.55M1709.09 4.54576V50.0031M1709.09 4.54576H1754.55M1709.09 50.0031V95.4605M1709.09 50.0031H1754.55M1709.09 95.4605V140.918M1709.09 95.4605H1754.55M1709.09 140.918V186.375M1709.09 140.918H1754.55M1709.09 186.375V231.833M1709.09 186.375H1754.55M1709.09 231.833V277.29M1709.09 231.833H1754.55M1709.09 277.29V322.747M1709.09 277.29H1754.55M1709.09 322.747V368.205M1709.09 322.747H1754.55M1709.09 368.205V413.662M1709.09 368.205H1754.55M1709.09 413.662V459.119M1709.09 413.662H1754.55M1709.09 459.119V504.577M1709.09 459.119H1754.55M1709.09 504.577V550.034M1709.09 504.577H1754.55M1709.09 550.034V595.491M1709.09 550.034H1754.55M1709.09 595.491V640.949M1709.09 595.491H1754.55M1709.09 640.949V686.406M1709.09 640.949H1754.55M1709.09 686.406V731.864M1709.09 686.406H1754.55M1709.09 731.864H1754.55M1754.55 -177.284V-131.826M1754.55 -177.284H1800V-131.826M1754.55 -131.826V-86.369M1754.55 -131.826H1800M1754.55 -86.369V-40.9116M1754.55 -86.369H1800M1754.55 -40.9116V4.54576M1754.55 -40.9116H1800M1754.55 4.54576V50.0031M1754.55 4.54576H1800M1754.55 50.0031V95.4605M1754.55 50.0031H1800M1754.55 95.4605V140.918M1754.55 95.4605H1800M1754.55 140.918V186.375M1754.55 140.918H1800M1754.55 186.375V231.833M1754.55 186.375H1800M1754.55 231.833V277.29M1754.55 231.833H1800M1754.55 277.29V322.747M1754.55 277.29H1800M1754.55 322.747V368.205M1754.55 322.747H1800M1754.55 368.205V413.662M1754.55 368.205H1800M1754.55 413.662V459.119M1754.55 413.662H1800M1754.55 459.119V504.577M1754.55 459.119H1800M1754.55 504.577V550.034M1754.55 504.577H1800M1754.55 550.034V595.491M1754.55 550.034H1800M1754.55 595.491V640.949M1754.55 595.491H1800M1754.55 640.949V686.406M1754.55 640.949H1800M1754.55 686.406V731.864M1754.55 686.406H1800M1754.55 731.864H1800V686.406M1800 -131.826V-86.369M1800 -86.369V-40.9116M1800 -40.9116V4.54576M1800 4.54576V50.0031M1800 50.0031V95.4605M1800 95.4605V140.918M1800 140.918V186.375M1800 186.375V231.833M1800 231.833V277.29M1800 277.29V322.747M1800 322.747V368.205M1800 368.205V413.662M1800 413.662V459.119M1800 459.119V504.577M1800 504.577V550.034M1800 550.034V595.491M1800 595.491V640.949M1800 640.949V686.406" stroke="url(#paint0_radial_2148_938)" stroke-width="0.5"/>
<path d="M345.455 536.397V563.671M331.818 550.034H359.091" stroke="url(#paint1_radial_2148_938)" stroke-opacity="0.8"/>
<path d="M709.09 536.397V563.671M695.454 550.034H722.727" stroke="url(#paint2_radial_2148_938)" stroke-opacity="0.8"/>
<path d="M1072.73 536.397V563.671M1059.09 550.034H1086.36" stroke="url(#paint3_radial_2148_938)" stroke-opacity="0.8"/>
<path d="M527.273 536.397V563.671M513.637 550.034H540.909" stroke="url(#paint4_radial_2148_938)" stroke-opacity="0.8"/>
<path d="M890.909 536.397V563.671M877.272 550.034H904.545" stroke="url(#paint5_radial_2148_938)" stroke-opacity="0.8"/>
<path d="M1254.55 536.397V563.671M1240.91 550.034H1268.18" stroke="url(#paint6_radial_2148_938)" stroke-opacity="0.8"/>
<path d="M301.136 413.662C301.136 414.289 300.627 414.798 300 414.798C299.373 414.798 298.864 414.289 298.864 413.662C298.864 413.035 299.373 412.525 300 412.525C300.627 412.525 301.136 413.035 301.136 413.662Z" fill="#BABCC9" fill-opacity="0.8"/>
<path d="M301.136 459.119C301.136 459.747 300.627 460.256 300 460.256C299.373 460.256 298.864 459.747 298.864 459.119C298.864 458.492 299.373 457.983 300 457.983C300.627 457.983 301.136 458.492 301.136 459.119Z" fill="#BABCC9" fill-opacity="0.8"/>
<path d="M301.136 504.577C301.136 505.204 300.627 505.713 300 505.713C299.373 505.713 298.864 505.204 298.864 504.577C298.864 503.95 299.373 503.44 300 503.44C300.627 503.44 301.136 503.95 301.136 504.577Z" fill="#BABCC9" fill-opacity="0.8"/>
<path d="M301.136 550.034C301.136 550.661 300.627 551.17 300 551.17C299.373 551.17 298.864 550.661 298.864 550.034C298.864 549.407 299.373 548.897 300 548.897C300.627 548.897 301.136 549.407 301.136 550.034Z" fill="#BABCC9" fill-opacity="0.8"/>
<path d="M255.682 413.662C255.682 414.289 255.173 414.798 254.546 414.798C253.918 414.798 253.409 414.289 253.409 413.662C253.409 413.035 253.918 412.525 254.546 412.525C255.173 412.525 255.682 413.035 255.682 413.662Z" fill="#BABCC9" fill-opacity="0.8"/>
<path d="M255.682 459.119C255.682 459.747 255.173 460.256 254.546 460.256C253.918 460.256 253.409 459.747 253.409 459.119C253.409 458.492 253.918 457.983 254.546 457.983C255.173 457.983 255.682 458.492 255.682 459.119Z" fill="#BABCC9" fill-opacity="0.8"/>
<path d="M255.682 504.577C255.682 505.204 255.173 505.713 254.546 505.713C253.918 505.713 253.409 505.204 253.409 504.577C253.409 503.95 253.918 503.44 254.546 503.44C255.173 503.44 255.682 503.95 255.682 504.577Z" fill="#BABCC9" fill-opacity="0.8"/>
<path d="M255.682 550.034C255.682 550.661 255.173 551.17 254.546 551.17C253.918 551.17 253.409 550.661 253.409 550.034C253.409 549.407 253.918 548.897 254.546 548.897C255.173 548.897 255.682 549.407 255.682 550.034Z" fill="#BABCC9" fill-opacity="0.8"/>
<path d="M210.227 413.662C210.227 414.289 209.718 414.798 209.091 414.798C208.464 414.798 207.955 414.289 207.955 413.662C207.955 413.035 208.464 412.525 209.091 412.525C209.718 412.525 210.227 413.035 210.227 413.662Z" fill="#BABCC9" fill-opacity="0.8"/>
<path d="M210.227 459.119C210.227 459.747 209.718 460.256 209.091 460.256C208.464 460.256 207.955 459.747 207.955 459.119C207.955 458.492 208.464 457.983 209.091 457.983C209.718 457.983 210.227 458.492 210.227 459.119Z" fill="#BABCC9" fill-opacity="0.8"/>
<path d="M210.227 504.577C210.227 505.204 209.718 505.713 209.091 505.713C208.464 505.713 207.955 505.204 207.955 504.577C207.955 503.95 208.464 503.44 209.091 503.44C209.718 503.44 210.227 503.95 210.227 504.577Z" fill="#BABCC9" fill-opacity="0.8"/>
<path d="M164.773 413.662C164.773 414.289 164.264 414.798 163.636 414.798C163.009 414.798 162.5 414.289 162.5 413.662C162.5 413.035 163.009 412.525 163.636 412.525C164.264 412.525 164.773 413.035 164.773 413.662Z" fill="#BABCC9" fill-opacity="0.8"/>
<path d="M164.773 459.119C164.773 459.747 164.264 460.256 163.636 460.256C163.009 460.256 162.5 459.747 162.5 459.119C162.5 458.492 163.009 457.983 163.636 457.983C164.264 457.983 164.773 458.492 164.773 459.119Z" fill="#BABCC9" fill-opacity="0.8"/>
<path d="M164.773 504.577C164.773 505.204 164.264 505.713 163.636 505.713C163.009 505.713 162.5 505.204 162.5 504.577C162.5 503.95 163.009 503.44 163.636 503.44C164.264 503.44 164.773 503.95 164.773 504.577Z" fill="#BABCC9" fill-opacity="0.8"/>
<path d="M119.318 413.662C119.318 414.289 118.809 414.798 118.182 414.798C117.555 414.798 117.045 414.289 117.045 413.662C117.045 413.035 117.555 412.525 118.182 412.525C118.809 412.525 119.318 413.035 119.318 413.662Z" fill="#BABCC9" fill-opacity="0.8"/>
<path d="M119.318 459.119C119.318 459.747 118.809 460.256 118.182 460.256C117.555 460.256 117.045 459.747 117.045 459.119C117.045 458.492 117.555 457.983 118.182 457.983C118.809 457.983 119.318 458.492 119.318 459.119Z" fill="#BABCC9" fill-opacity="0.8"/>
<path d="M346.591 413.662C346.591 414.289 346.082 414.798 345.455 414.798C344.827 414.798 344.318 414.289 344.318 413.662C344.318 413.035 344.827 412.525 345.455 412.525C346.082 412.525 346.591 413.035 346.591 413.662Z" fill="#BABCC9" fill-opacity="0.8"/>
<path d="M346.591 459.119C346.591 459.747 346.082 460.256 345.455 460.256C344.827 460.256 344.318 459.747 344.318 459.119C344.318 458.492 344.827 457.983 345.455 457.983C346.082 457.983 346.591 458.492 346.591 459.119Z" fill="#BABCC9" fill-opacity="0.8"/>
<path d="M346.591 504.577C346.591 505.204 346.082 505.713 345.455 505.713C344.827 505.713 344.318 505.204 344.318 504.577C344.318 503.95 344.827 503.44 345.455 503.44C346.082 503.44 346.591 503.95 346.591 504.577Z" fill="#BABCC9" fill-opacity="0.8"/>
<path d="M346.591 550.034C346.591 550.661 346.082 551.17 345.455 551.17C344.827 551.17 344.318 550.661 344.318 550.034C344.318 549.407 344.827 548.897 345.455 548.897C346.082 548.897 346.591 549.407 346.591 550.034Z" fill="#BABCC9" fill-opacity="0.8"/>
<path d="M392.045 413.662C392.045 414.289 391.536 414.798 390.909 414.798C390.282 414.798 389.772 414.289 389.772 413.662C389.772 413.035 390.282 412.525 390.909 412.525C391.536 412.525 392.045 413.035 392.045 413.662Z" fill="#BABCC9" fill-opacity="0.8"/>
<path d="M392.045 459.119C392.045 459.747 391.536 460.256 390.909 460.256C390.282 460.256 389.772 459.747 389.772 459.119C389.772 458.492 390.282 457.983 390.909 457.983C391.536 457.983 392.045 458.492 392.045 459.119Z" fill="#BABCC9" fill-opacity="0.8"/>
<path d="M392.045 504.577C392.045 505.204 391.536 505.713 390.909 505.713C390.282 505.713 389.772 505.204 389.772 504.577C389.772 503.95 390.282 503.44 390.909 503.44C391.536 503.44 392.045 503.95 392.045 504.577Z" fill="#BABCC9" fill-opacity="0.8"/>
<path d="M392.045 550.034C392.045 550.661 391.536 551.17 390.909 551.17C390.282 551.17 389.772 550.661 389.772 550.034C389.772 549.407 390.282 548.897 390.909 548.897C391.536 548.897 392.045 549.407 392.045 550.034Z" fill="#BABCC9" fill-opacity="0.8"/>
<path d="M437.5 413.662C437.5 414.289 436.991 414.798 436.364 414.798C435.737 414.798 435.228 414.289 435.228 413.662C435.228 413.035 435.737 412.525 436.364 412.525C436.991 412.525 437.5 413.035 437.5 413.662Z" fill="#BABCC9" fill-opacity="0.8"/>
<path d="M437.5 459.119C437.5 459.747 436.991 460.256 436.364 460.256C435.737 460.256 435.228 459.747 435.228 459.119C435.228 458.492 435.737 457.983 436.364 457.983C436.991 457.983 437.5 458.492 437.5 459.119Z" fill="#BABCC9" fill-opacity="0.8"/>
<path d="M437.5 504.577C437.5 505.204 436.991 505.713 436.364 505.713C435.737 505.713 435.228 505.204 435.228 504.577C435.228 503.95 435.737 503.44 436.364 503.44C436.991 503.44 437.5 503.95 437.5 504.577Z" fill="#BABCC9" fill-opacity="0.8"/>
<path d="M437.5 550.034C437.5 550.661 436.991 551.17 436.364 551.17C435.737 551.17 435.228 550.661 435.228 550.034C435.228 549.407 435.737 548.897 436.364 548.897C436.991 548.897 437.5 549.407 437.5 550.034Z" fill="#BABCC9" fill-opacity="0.8"/>
<path d="M482.954 413.662C482.954 414.289 482.445 414.798 481.818 414.798C481.191 414.798 480.682 414.289 480.682 413.662C480.682 413.035 481.191 412.525 481.818 412.525C482.445 412.525 482.954 413.035 482.954 413.662Z" fill="#BABCC9" fill-opacity="0.8"/>
<path d="M482.954 459.119C482.954 459.747 482.445 460.256 481.818 460.256C481.191 460.256 480.682 459.747 480.682 459.119C480.682 458.492 481.191 457.983 481.818 457.983C482.445 457.983 482.954 458.492 482.954 459.119Z" fill="#BABCC9" fill-opacity="0.8"/>
<path d="M482.954 504.577C482.954 505.204 482.445 505.713 481.818 505.713C481.191 505.713 480.682 505.204 480.682 504.577C480.682 503.95 481.191 503.44 481.818 503.44C482.445 503.44 482.954 503.95 482.954 504.577Z" fill="#BABCC9" fill-opacity="0.8"/>
<path d="M482.954 550.034C482.954 550.661 482.445 551.17 481.818 551.17C481.191 551.17 480.682 550.661 480.682 550.034C480.682 549.407 481.191 548.897 481.818 548.897C482.445 548.897 482.954 549.407 482.954 550.034Z" fill="#BABCC9" fill-opacity="0.8"/>
<path d="M528.409 413.662C528.409 414.289 527.9 414.798 527.273 414.798C526.646 414.798 526.137 414.289 526.137 413.662C526.137 413.035 526.646 412.525 527.273 412.525C527.9 412.525 528.409 413.035 528.409 413.662Z" fill="#BABCC9" fill-opacity="0.8"/>
<path d="M528.409 459.119C528.409 459.747 527.9 460.256 527.273 460.256C526.646 460.256 526.137 459.747 526.137 459.119C526.137 458.492 526.646 457.983 527.273 457.983C527.9 457.983 528.409 458.492 528.409 459.119Z" fill="#BABCC9" fill-opacity="0.8"/>
<path d="M528.409 504.577C528.409 505.204 527.9 505.713 527.273 505.713C526.646 505.713 526.137 505.204 526.137 504.577C526.137 503.95 526.646 503.44 527.273 503.44C527.9 503.44 528.409 503.95 528.409 504.577Z" fill="#BABCC9" fill-opacity="0.8"/>
<path d="M528.409 550.034C528.409 550.661 527.9 551.17 527.273 551.17C526.646 551.17 526.137 550.661 526.137 550.034C526.137 549.407 526.646 548.897 527.273 548.897C527.9 548.897 528.409 549.407 528.409 550.034Z" fill="#BABCC9" fill-opacity="0.8"/>
<path d="M573.864 413.662C573.864 414.289 573.354 414.798 572.727 414.798C572.1 414.798 571.591 414.289 571.591 413.662C571.591 413.035 572.1 412.525 572.727 412.525C573.354 412.525 573.864 413.035 573.864 413.662Z" fill="#BABCC9" fill-opacity="0.8"/>
<path d="M573.864 459.119C573.864 459.747 573.354 460.256 572.727 460.256C572.1 460.256 571.591 459.747 571.591 459.119C571.591 458.492 572.1 457.983 572.727 457.983C573.354 457.983 573.864 458.492 573.864 459.119Z" fill="#BABCC9" fill-opacity="0.8"/>
<path d="M573.864 504.577C573.864 505.204 573.354 505.713 572.727 505.713C572.1 505.713 571.591 505.204 571.591 504.577C571.591 503.95 572.1 503.44 572.727 503.44C573.354 503.44 573.864 503.95 573.864 504.577Z" fill="#BABCC9" fill-opacity="0.8"/>
<path d="M573.864 550.034C573.864 550.661 573.354 551.17 572.727 551.17C572.1 551.17 571.591 550.661 571.591 550.034C571.591 549.407 572.1 548.897 572.727 548.897C573.354 548.897 573.864 549.407 573.864 550.034Z" fill="#BABCC9" fill-opacity="0.8"/>
<path d="M619.319 413.662C619.319 414.289 618.81 414.798 618.182 414.798C617.555 414.798 617.046 414.289 617.046 413.662C617.046 413.035 617.555 412.525 618.182 412.525C618.81 412.525 619.319 413.035 619.319 413.662Z" fill="#BABCC9" fill-opacity="0.8"/>
<path d="M619.319 459.119C619.319 459.747 618.81 460.256 618.182 460.256C617.555 460.256 617.046 459.747 617.046 459.119C617.046 458.492 617.555 457.983 618.182 457.983C618.81 457.983 619.319 458.492 619.319 459.119Z" fill="#BABCC9" fill-opacity="0.8"/>
<path d="M619.319 504.577C619.319 505.204 618.81 505.713 618.182 505.713C617.555 505.713 617.046 505.204 617.046 504.577C617.046 503.95 617.555 503.44 618.182 503.44C618.81 503.44 619.319 503.95 619.319 504.577Z" fill="#BABCC9" fill-opacity="0.8"/>
<path d="M619.319 550.034C619.319 550.661 618.81 551.17 618.182 551.17C617.555 551.17 617.046 550.661 617.046 550.034C617.046 549.407 617.555 548.897 618.182 548.897C618.81 548.897 619.319 549.407 619.319 550.034Z" fill="#BABCC9" fill-opacity="0.8"/>
<path d="M664.773 413.662C664.773 414.289 664.264 414.798 663.636 414.798C663.009 414.798 662.5 414.289 662.5 413.662C662.5 413.035 663.009 412.525 663.636 412.525C664.264 412.525 664.773 413.035 664.773 413.662Z" fill="#BABCC9" fill-opacity="0.8"/>
<path d="M664.773 459.119C664.773 459.747 664.264 460.256 663.636 460.256C663.009 460.256 662.5 459.747 662.5 459.119C662.5 458.492 663.009 457.983 663.636 457.983C664.264 457.983 664.773 458.492 664.773 459.119Z" fill="#BABCC9" fill-opacity="0.8"/>
<path d="M664.773 504.577C664.773 505.204 664.264 505.713 663.636 505.713C663.009 505.713 662.5 505.204 662.5 504.577C662.5 503.95 663.009 503.44 663.636 503.44C664.264 503.44 664.773 503.95 664.773 504.577Z" fill="#BABCC9" fill-opacity="0.8"/>
<path d="M664.773 550.034C664.773 550.661 664.264 551.17 663.636 551.17C663.009 551.17 662.5 550.661 662.5 550.034C662.5 549.407 663.009 548.897 663.636 548.897C664.264 548.897 664.773 549.407 664.773 550.034Z" fill="#BABCC9" fill-opacity="0.8"/>
<path d="M710.227 413.662C710.227 414.289 709.718 414.798 709.09 414.798C708.463 414.798 707.954 414.289 707.954 413.662C707.954 413.035 708.463 412.525 709.09 412.525C709.718 412.525 710.227 413.035 710.227 413.662Z" fill="#BABCC9" fill-opacity="0.8"/>
<path d="M710.227 459.119C710.227 459.747 709.718 460.256 709.09 460.256C708.463 460.256 707.954 459.747 707.954 459.119C707.954 458.492 708.463 457.983 709.09 457.983C709.718 457.983 710.227 458.492 710.227 459.119Z" fill="#BABCC9" fill-opacity="0.8"/>
<path d="M710.227 504.577C710.227 505.204 709.718 505.713 709.09 505.713C708.463 505.713 707.954 505.204 707.954 504.577C707.954 503.95 708.463 503.44 709.09 503.44C709.718 503.44 710.227 503.95 710.227 504.577Z" fill="#BABCC9" fill-opacity="0.8"/>
<path d="M710.227 550.034C710.227 550.661 709.718 551.17 709.09 551.17C708.463 551.17 707.954 550.661 707.954 550.034C707.954 549.407 708.463 548.897 709.09 548.897C709.718 548.897 710.227 549.407 710.227 550.034Z" fill="#BABCC9" fill-opacity="0.8"/>
<path d="M755.682 413.662C755.682 414.289 755.173 414.798 754.546 414.798C753.918 414.798 753.409 414.289 753.409 413.662C753.409 413.035 753.918 412.525 754.546 412.525C755.173 412.525 755.682 413.035 755.682 413.662Z" fill="#BABCC9" fill-opacity="0.8"/>
<path d="M755.682 459.119C755.682 459.747 755.173 460.256 754.546 460.256C753.918 460.256 753.409 459.747 753.409 459.119C753.409 458.492 753.918 457.983 754.546 457.983C755.173 457.983 755.682 458.492 755.682 459.119Z" fill="#BABCC9" fill-opacity="0.8"/>
<path d="M755.682 504.577C755.682 505.204 755.173 505.713 754.546 505.713C753.918 505.713 753.409 505.204 753.409 504.577C753.409 503.95 753.918 503.44 754.546 503.44C755.173 503.44 755.682 503.95 755.682 504.577Z" fill="#BABCC9" fill-opacity="0.8"/>
<path d="M755.682 550.034C755.682 550.661 755.173 551.17 754.546 551.17C753.918 551.17 753.409 550.661 753.409 550.034C753.409 549.407 753.918 548.897 754.546 548.897C755.173 548.897 755.682 549.407 755.682 550.034Z" fill="#BABCC9" fill-opacity="0.8"/>
<path d="M801.136 413.662C801.136 414.289 800.627 414.798 800 414.798C799.372 414.798 798.863 414.289 798.863 413.662C798.863 413.035 799.372 412.525 800 412.525C800.627 412.525 801.136 413.035 801.136 413.662Z" fill="#BABCC9" fill-opacity="0.8"/>
<path d="M801.136 459.119C801.136 459.747 800.627 460.256 800 460.256C799.372 460.256 798.863 459.747 798.863 459.119C798.863 458.492 799.372 457.983 800 457.983C800.627 457.983 801.136 458.492 801.136 459.119Z" fill="#BABCC9" fill-opacity="0.8"/>
<path d="M801.136 504.577C801.136 505.204 800.627 505.713 800 505.713C799.372 505.713 798.863 505.204 798.863 504.577C798.863 503.95 799.372 503.44 800 503.44C800.627 503.44 801.136 503.95 801.136 504.577Z" fill="#BABCC9" fill-opacity="0.8"/>
<path d="M801.136 550.034C801.136 550.661 800.627 551.17 800 551.17C799.372 551.17 798.863 550.661 798.863 550.034C798.863 549.407 799.372 548.897 800 548.897C800.627 548.897 801.136 549.407 801.136 550.034Z" fill="#BABCC9" fill-opacity="0.8"/>
<path d="M846.591 413.662C846.591 414.289 846.082 414.798 845.455 414.798C844.827 414.798 844.318 414.289 844.318 413.662C844.318 413.035 844.827 412.525 845.455 412.525C846.082 412.525 846.591 413.035 846.591 413.662Z" fill="#BABCC9" fill-opacity="0.8"/>
<path d="M846.591 459.119C846.591 459.747 846.082 460.256 845.455 460.256C844.827 460.256 844.318 459.747 844.318 459.119C844.318 458.492 844.827 457.983 845.455 457.983C846.082 457.983 846.591 458.492 846.591 459.119Z" fill="#BABCC9" fill-opacity="0.8"/>
<path d="M846.591 504.577C846.591 505.204 846.082 505.713 845.455 505.713C844.827 505.713 844.318 505.204 844.318 504.577C844.318 503.95 844.827 503.44 845.455 503.44C846.082 503.44 846.591 503.95 846.591 504.577Z" fill="#BABCC9" fill-opacity="0.8"/>
<path d="M846.591 550.034C846.591 550.661 846.082 551.17 845.455 551.17C844.827 551.17 844.318 550.661 844.318 550.034C844.318 549.407 844.827 548.897 845.455 548.897C846.082 548.897 846.591 549.407 846.591 550.034Z" fill="#BABCC9" fill-opacity="0.8"/>
<path d="M892.045 413.662C892.045 414.289 891.536 414.798 890.909 414.798C890.282 414.798 889.772 414.289 889.772 413.662C889.772 413.035 890.282 412.525 890.909 412.525C891.536 412.525 892.045 413.035 892.045 413.662Z" fill="#BABCC9" fill-opacity="0.8"/>
<path d="M892.045 459.119C892.045 459.747 891.536 460.256 890.909 460.256C890.282 460.256 889.772 459.747 889.772 459.119C889.772 458.492 890.282 457.983 890.909 457.983C891.536 457.983 892.045 458.492 892.045 459.119Z" fill="#BABCC9" fill-opacity="0.8"/>
<path d="M892.045 504.577C892.045 505.204 891.536 505.713 890.909 505.713C890.282 505.713 889.772 505.204 889.772 504.577C889.772 503.95 890.282 503.44 890.909 503.44C891.536 503.44 892.045 503.95 892.045 504.577Z" fill="#BABCC9" fill-opacity="0.8"/>
<path d="M892.045 550.034C892.045 550.661 891.536 551.17 890.909 551.17C890.282 551.17 889.772 550.661 889.772 550.034C889.772 549.407 890.282 548.897 890.909 548.897C891.536 548.897 892.045 549.407 892.045 550.034Z" fill="#BABCC9" fill-opacity="0.8"/>
<path d="M937.5 413.662C937.5 414.289 936.991 414.798 936.364 414.798C935.737 414.798 935.228 414.289 935.228 413.662C935.228 413.035 935.737 412.525 936.364 412.525C936.991 412.525 937.5 413.035 937.5 413.662Z" fill="#BABCC9" fill-opacity="0.8"/>
<path d="M937.5 459.119C937.5 459.747 936.991 460.256 936.364 460.256C935.737 460.256 935.228 459.747 935.228 459.119C935.228 458.492 935.737 457.983 936.364 457.983C936.991 457.983 937.5 458.492 937.5 459.119Z" fill="#BABCC9" fill-opacity="0.8"/>
<path d="M937.5 504.577C937.5 505.204 936.991 505.713 936.364 505.713C935.737 505.713 935.228 505.204 935.228 504.577C935.228 503.95 935.737 503.44 936.364 503.44C936.991 503.44 937.5 503.95 937.5 504.577Z" fill="#BABCC9" fill-opacity="0.8"/>
<path d="M937.5 550.034C937.5 550.661 936.991 551.17 936.364 551.17C935.737 551.17 935.228 550.661 935.228 550.034C935.228 549.407 935.737 548.897 936.364 548.897C936.991 548.897 937.5 549.407 937.5 550.034Z" fill="#BABCC9" fill-opacity="0.8"/>
<path d="M982.954 413.662C982.954 414.289 982.445 414.798 981.818 414.798C981.191 414.798 980.682 414.289 980.682 413.662C980.682 413.035 981.191 412.525 981.818 412.525C982.445 412.525 982.954 413.035 982.954 413.662Z" fill="#BABCC9" fill-opacity="0.8"/>
<path d="M982.954 459.119C982.954 459.747 982.445 460.256 981.818 460.256C981.191 460.256 980.682 459.747 980.682 459.119C980.682 458.492 981.191 457.983 981.818 457.983C982.445 457.983 982.954 458.492 982.954 459.119Z" fill="#BABCC9" fill-opacity="0.8"/>
<path d="M982.954 504.577C982.954 505.204 982.445 505.713 981.818 505.713C981.191 505.713 980.682 505.204 980.682 504.577C980.682 503.95 981.191 503.44 981.818 503.44C982.445 503.44 982.954 503.95 982.954 504.577Z" fill="#BABCC9" fill-opacity="0.8"/>
<path d="M982.954 550.034C982.954 550.661 982.445 551.17 981.818 551.17C981.191 551.17 980.682 550.661 980.682 550.034C980.682 549.407 981.191 548.897 981.818 548.897C982.445 548.897 982.954 549.407 982.954 550.034Z" fill="#BABCC9" fill-opacity="0.8"/>
<path d="M119.318 368.205C119.318 367.577 118.809 367.068 118.182 367.068C117.555 367.068 117.045 367.577 117.045 368.205C117.045 368.832 117.555 369.341 118.182 369.341C118.809 369.341 119.318 368.832 119.318 368.205Z" fill="#BABCC9" fill-opacity="0.8"/>
<path d="M1344.32 413.662C1344.32 414.289 1344.83 414.798 1345.45 414.798C1346.08 414.798 1346.59 414.289 1346.59 413.662C1346.59 413.035 1346.08 412.525 1345.45 412.525C1344.83 412.525 1344.32 413.035 1344.32 413.662Z" fill="#BABCC9" fill-opacity="0.8"/>
<path d="M1344.32 459.119C1344.32 459.747 1344.83 460.256 1345.45 460.256C1346.08 460.256 1346.59 459.747 1346.59 459.119C1346.59 458.492 1346.08 457.983 1345.45 457.983C1344.83 457.983 1344.32 458.492 1344.32 459.119Z" fill="#BABCC9" fill-opacity="0.8"/>
<path d="M1344.32 504.577C1344.32 505.204 1344.83 505.713 1345.45 505.713C1346.08 505.713 1346.59 505.204 1346.59 504.577C1346.59 503.95 1346.08 503.44 1345.45 503.44C1344.83 503.44 1344.32 503.95 1344.32 504.577Z" fill="#BABCC9" fill-opacity="0.8"/>
<path d="M1344.32 550.034C1344.32 550.661 1344.83 551.17 1345.45 551.17C1346.08 551.17 1346.59 550.661 1346.59 550.034C1346.59 549.407 1346.08 548.897 1345.45 548.897C1344.83 548.897 1344.32 549.407 1344.32 550.034Z" fill="#BABCC9" fill-opacity="0.8"/>
<path d="M1298.86 413.662C1298.86 414.289 1299.37 414.798 1300 414.798C1300.62 414.798 1301.14 414.289 1301.14 413.662C1301.14 413.035 1300.62 412.525 1300 412.525C1299.37 412.525 1298.86 413.035 1298.86 413.662Z" fill="#BABCC9" fill-opacity="0.8"/>
<path d="M1298.86 459.119C1298.86 459.747 1299.37 460.256 1300 460.256C1300.62 460.256 1301.14 459.747 1301.14 459.119C1301.14 458.492 1300.62 457.983 1300 457.983C1299.37 457.983 1298.86 458.492 1298.86 459.119Z" fill="#BABCC9" fill-opacity="0.8"/>
<path d="M1298.86 504.577C1298.86 505.204 1299.37 505.713 1300 505.713C1300.62 505.713 1301.14 505.204 1301.14 504.577C1301.14 503.95 1300.62 503.44 1300 503.44C1299.37 503.44 1298.86 503.95 1298.86 504.577Z" fill="#BABCC9" fill-opacity="0.8"/>
<path d="M1298.86 550.034C1298.86 550.661 1299.37 551.17 1300 551.17C1300.62 551.17 1301.14 550.661 1301.14 550.034C1301.14 549.407 1300.62 548.897 1300 548.897C1299.37 548.897 1298.86 549.407 1298.86 550.034Z" fill="#BABCC9" fill-opacity="0.8"/>
<path d="M1253.41 413.662C1253.41 414.289 1253.92 414.798 1254.55 414.798C1255.17 414.798 1255.68 414.289 1255.68 413.662C1255.68 413.035 1255.17 412.525 1254.55 412.525C1253.92 412.525 1253.41 413.035 1253.41 413.662Z" fill="#BABCC9" fill-opacity="0.8"/>
<path d="M1253.41 459.119C1253.41 459.747 1253.92 460.256 1254.55 460.256C1255.17 460.256 1255.68 459.747 1255.68 459.119C1255.68 458.492 1255.17 457.983 1254.55 457.983C1253.92 457.983 1253.41 458.492 1253.41 459.119Z" fill="#BABCC9" fill-opacity="0.8"/>
<path d="M1253.41 504.577C1253.41 505.204 1253.92 505.713 1254.55 505.713C1255.17 505.713 1255.68 505.204 1255.68 504.577C1255.68 503.95 1255.17 503.44 1254.55 503.44C1253.92 503.44 1253.41 503.95 1253.41 504.577Z" fill="#BABCC9" fill-opacity="0.8"/>
<path d="M1253.41 550.034C1253.41 550.661 1253.92 551.17 1254.55 551.17C1255.17 551.17 1255.68 550.661 1255.68 550.034C1255.68 549.407 1255.17 548.897 1254.55 548.897C1253.92 548.897 1253.41 549.407 1253.41 550.034Z" fill="#BABCC9" fill-opacity="0.8"/>
<path d="M1207.96 413.662C1207.96 414.289 1208.47 414.798 1209.09 414.798C1209.72 414.798 1210.23 414.289 1210.23 413.662C1210.23 413.035 1209.72 412.525 1209.09 412.525C1208.47 412.525 1207.96 413.035 1207.96 413.662Z" fill="#BABCC9" fill-opacity="0.8"/>
<path d="M1207.96 459.119C1207.96 459.747 1208.47 460.256 1209.09 460.256C1209.72 460.256 1210.23 459.747 1210.23 459.119C1210.23 458.492 1209.72 457.983 1209.09 457.983C1208.47 457.983 1207.96 458.492 1207.96 459.119Z" fill="#BABCC9" fill-opacity="0.8"/>
<path d="M1207.96 504.577C1207.96 505.204 1208.47 505.713 1209.09 505.713C1209.72 505.713 1210.23 505.204 1210.23 504.577C1210.23 503.95 1209.72 503.44 1209.09 503.44C1208.47 503.44 1207.96 503.95 1207.96 504.577Z" fill="#BABCC9" fill-opacity="0.8"/>
<path d="M1207.96 550.034C1207.96 550.661 1208.47 551.17 1209.09 551.17C1209.72 551.17 1210.23 550.661 1210.23 550.034C1210.23 549.407 1209.72 548.897 1209.09 548.897C1208.47 548.897 1207.96 549.407 1207.96 550.034Z" fill="#BABCC9" fill-opacity="0.8"/>
<path d="M1162.5 413.662C1162.5 414.289 1163.01 414.798 1163.64 414.798C1164.26 414.798 1164.77 414.289 1164.77 413.662C1164.77 413.035 1164.26 412.525 1163.64 412.525C1163.01 412.525 1162.5 413.035 1162.5 413.662Z" fill="#BABCC9" fill-opacity="0.8"/>
<path d="M1162.5 459.119C1162.5 459.747 1163.01 460.256 1163.64 460.256C1164.26 460.256 1164.77 459.747 1164.77 459.119C1164.77 458.492 1164.26 457.983 1163.64 457.983C1163.01 457.983 1162.5 458.492 1162.5 459.119Z" fill="#BABCC9" fill-opacity="0.8"/>
<path d="M1162.5 504.577C1162.5 505.204 1163.01 505.713 1163.64 505.713C1164.26 505.713 1164.77 505.204 1164.77 504.577C1164.77 503.95 1164.26 503.44 1163.64 503.44C1163.01 503.44 1162.5 503.95 1162.5 504.577Z" fill="#BABCC9" fill-opacity="0.8"/>
<path d="M1162.5 550.034C1162.5 550.661 1163.01 551.17 1163.64 551.17C1164.26 551.17 1164.77 550.661 1164.77 550.034C1164.77 549.407 1164.26 548.897 1163.64 548.897C1163.01 548.897 1162.5 549.407 1162.5 550.034Z" fill="#BABCC9" fill-opacity="0.8"/>
<path d="M1117.04 413.662C1117.04 414.289 1117.55 414.798 1118.18 414.798C1118.81 414.798 1119.32 414.289 1119.32 413.662C1119.32 413.035 1118.81 412.525 1118.18 412.525C1117.55 412.525 1117.04 413.035 1117.04 413.662Z" fill="#BABCC9" fill-opacity="0.8"/>
<path d="M1117.04 459.119C1117.04 459.747 1117.55 460.256 1118.18 460.256C1118.81 460.256 1119.32 459.747 1119.32 459.119C1119.32 458.492 1118.81 457.983 1118.18 457.983C1117.55 457.983 1117.04 458.492 1117.04 459.119Z" fill="#BABCC9" fill-opacity="0.8"/>
<path d="M1117.04 504.577C1117.04 505.204 1117.55 505.713 1118.18 505.713C1118.81 505.713 1119.32 505.204 1119.32 504.577C1119.32 503.95 1118.81 503.44 1118.18 503.44C1117.55 503.44 1117.04 503.95 1117.04 504.577Z" fill="#BABCC9" fill-opacity="0.8"/>
<path d="M1117.04 550.034C1117.04 550.661 1117.55 551.17 1118.18 551.17C1118.81 551.17 1119.32 550.661 1119.32 550.034C1119.32 549.407 1118.81 548.897 1118.18 548.897C1117.55 548.897 1117.04 549.407 1117.04 550.034Z" fill="#BABCC9" fill-opacity="0.8"/>
<path d="M1071.59 413.662C1071.59 414.289 1072.1 414.798 1072.73 414.798C1073.35 414.798 1073.86 414.289 1073.86 413.662C1073.86 413.035 1073.35 412.525 1072.73 412.525C1072.1 412.525 1071.59 413.035 1071.59 413.662Z" fill="#BABCC9" fill-opacity="0.8"/>
<path d="M1071.59 459.119C1071.59 459.747 1072.1 460.256 1072.73 460.256C1073.35 460.256 1073.86 459.747 1073.86 459.119C1073.86 458.492 1073.35 457.983 1072.73 457.983C1072.1 457.983 1071.59 458.492 1071.59 459.119Z" fill="#BABCC9" fill-opacity="0.8"/>
<path d="M1071.59 504.577C1071.59 505.204 1072.1 505.713 1072.73 505.713C1073.35 505.713 1073.86 505.204 1073.86 504.577C1073.86 503.95 1073.35 503.44 1072.73 503.44C1072.1 503.44 1071.59 503.95 1071.59 504.577Z" fill="#BABCC9" fill-opacity="0.8"/>
<path d="M1071.59 550.034C1071.59 550.661 1072.1 551.17 1072.73 551.17C1073.35 551.17 1073.86 550.661 1073.86 550.034C1073.86 549.407 1073.35 548.897 1072.73 548.897C1072.1 548.897 1071.59 549.407 1071.59 550.034Z" fill="#BABCC9" fill-opacity="0.8"/>
<path d="M1026.14 413.662C1026.14 414.289 1026.65 414.798 1027.27 414.798C1027.9 414.798 1028.41 414.289 1028.41 413.662C1028.41 413.035 1027.9 412.525 1027.27 412.525C1026.65 412.525 1026.14 413.035 1026.14 413.662Z" fill="#BABCC9" fill-opacity="0.8"/>
<path d="M1026.14 459.119C1026.14 459.747 1026.65 460.256 1027.27 460.256C1027.9 460.256 1028.41 459.747 1028.41 459.119C1028.41 458.492 1027.9 457.983 1027.27 457.983C1026.65 457.983 1026.14 458.492 1026.14 459.119Z" fill="#BABCC9" fill-opacity="0.8"/>
<path d="M1026.14 504.577C1026.14 505.204 1026.65 505.713 1027.27 505.713C1027.9 505.713 1028.41 505.204 1028.41 504.577C1028.41 503.95 1027.9 503.44 1027.27 503.44C1026.65 503.44 1026.14 503.95 1026.14 504.577Z" fill="#BABCC9" fill-opacity="0.8"/>
<path d="M1026.14 550.034C1026.14 550.661 1026.65 551.17 1027.27 551.17C1027.9 551.17 1028.41 550.661 1028.41 550.034C1028.41 549.407 1027.9 548.897 1027.27 548.897C1026.65 548.897 1026.14 549.407 1026.14 550.034Z" fill="#BABCC9" fill-opacity="0.8"/>
</g>
<defs>
<radialGradient id="paint0_radial_2148_938" cx="0" cy="0" r="1" gradientUnits="userSpaceOnUse" gradientTransform="translate(800 277.29) rotate(90) scale(454.574 1000)">
<stop offset="0.329443" stop-color="#E7E7EF"/>
<stop offset="0.869558" stop-color="#E7E7EF" stop-opacity="0"/>
</radialGradient>
<radialGradient id="paint1_radial_2148_938" cx="0" cy="0" r="1" gradientUnits="userSpaceOnUse" gradientTransform="translate(345.455 550.034) rotate(90) scale(13.6372 13.6364)">
<stop stop-color="#BABCC9"/>
<stop offset="1" stop-color="#BABCC9" stop-opacity="0"/>
</radialGradient>
<radialGradient id="paint2_radial_2148_938" cx="0" cy="0" r="1" gradientUnits="userSpaceOnUse" gradientTransform="translate(709.09 550.034) rotate(90) scale(13.6372 13.6364)">
<stop stop-color="#BABCC9"/>
<stop offset="1" stop-color="#BABCC9" stop-opacity="0"/>
</radialGradient>
<radialGradient id="paint3_radial_2148_938" cx="0" cy="0" r="1" gradientUnits="userSpaceOnUse" gradientTransform="translate(1072.73 550.034) rotate(90) scale(13.6372 13.6364)">
<stop stop-color="#BABCC9"/>
<stop offset="1" stop-color="#BABCC9" stop-opacity="0"/>
</radialGradient>
<radialGradient id="paint4_radial_2148_938" cx="0" cy="0" r="1" gradientUnits="userSpaceOnUse" gradientTransform="translate(527.273 550.034) rotate(90) scale(13.6372 13.6364)">
<stop stop-color="#BABCC9"/>
<stop offset="1" stop-color="#BABCC9" stop-opacity="0"/>
</radialGradient>
<radialGradient id="paint5_radial_2148_938" cx="0" cy="0" r="1" gradientUnits="userSpaceOnUse" gradientTransform="translate(890.909 550.034) rotate(90) scale(13.6372 13.6364)">
<stop stop-color="#BABCC9"/>
<stop offset="1" stop-color="#BABCC9" stop-opacity="0"/>
</radialGradient>
<radialGradient id="paint6_radial_2148_938" cx="0" cy="0" r="1" gradientUnits="userSpaceOnUse" gradientTransform="translate(1254.55 550.034) rotate(90) scale(13.6372 13.6364)">
<stop stop-color="#BABCC9"/>
<stop offset="1" stop-color="#BABCC9" stop-opacity="0"/>
</radialGradient>
<clipPath id="clip0_2148_938">
<rect width="1600" height="733" fill="white"/>
</clipPath>
</defs>
</svg>
