<svg width="1920" height="712" viewBox="0 0 1920 712" fill="none" xmlns="http://www.w3.org/2000/svg">
<path d="M3.45455 1H-42V36.4974M3.45455 1V36.4974M3.45455 1H48.9091M-42 36.4974H3.45455M-42 36.4974V71.9948M3.45455 36.4974V71.9948M3.45455 36.4974H48.9091M48.9091 1V36.4974M48.9091 1H94.3636M3.45455 71.9948H-42M3.45455 71.9948V107.492M3.45455 71.9948H48.9091M48.9091 36.4974V71.9948M48.9091 36.4974H94.3636M-42 71.9948V107.492M3.45455 107.492H-42M3.45455 107.492V142.99M3.45455 107.492H48.9091M48.9091 71.9948V107.492M48.9091 71.9948H94.3636M-42 107.492V142.99M3.45455 142.99H-42M3.45455 142.99V178.487M3.45455 142.99H48.9091M48.9091 107.492V142.99M48.9091 107.492H94.3636M-42 142.99V178.487M3.45455 178.487H-42M3.45455 178.487V213.984M3.45455 178.487H48.9091M48.9091 142.99V178.487M48.9091 142.99H94.3636M-42 178.487V213.984M3.45455 213.984H-42M3.45455 213.984V249.482M3.45455 213.984H48.9091M48.9091 178.487V213.984M48.9091 178.487H94.3636M-42 213.984V249.482M3.45455 249.482H-42M3.45455 249.482V284.979M3.45455 249.482H48.9091M48.9091 213.984V249.482M48.9091 213.984H94.3636M-42 249.482V284.979M3.45455 284.979H-42M3.45455 284.979V320.476M3.45455 284.979H48.9091M48.9091 249.482V284.979M48.9091 249.482H94.3636M-42 284.979V320.476M3.45455 320.476H-42M3.45455 320.476V355.974M3.45455 320.476H48.9091M48.9091 284.979V320.476M48.9091 284.979H94.3636M-42 320.476V355.974M3.45455 355.974H-42M3.45455 355.974V391.471M3.45455 355.974H48.9091M48.9091 320.476V355.974M48.9091 320.476H94.3636M-42 355.974V391.471M3.45455 391.471H-42M3.45455 391.471V426.969M3.45455 391.471H48.9091M48.9091 355.974V391.471M48.9091 355.974H94.3636M-42 391.471V426.969M3.45455 426.969H-42M3.45455 426.969V462.466M3.45455 426.969H48.9091M48.9091 391.471V426.969M48.9091 391.471H94.3636M-42 426.969V462.466M3.45455 462.466H-42M3.45455 462.466V497.963M3.45455 462.466H48.9091M48.9091 426.969V462.466M48.9091 426.969H94.3636M-42 462.466V497.963M3.45455 497.963H-42M3.45455 497.963V533.461M3.45455 497.963H48.9091M48.9091 462.466V497.963M48.9091 462.466H94.3636M-42 497.963V533.461M3.45455 533.461H-42M3.45455 533.461V568.958M3.45455 533.461H48.9091M48.9091 497.963V533.461M48.9091 497.963H94.3636M-42 533.461V568.958M3.45455 568.958H-42M3.45455 568.958V604.456M3.45455 568.958H48.9091M48.9091 533.461V568.958M48.9091 533.461H94.3636M-42 568.958V604.456M3.45455 604.456H-42M3.45455 604.456V639.953M3.45455 604.456H48.9091M48.9091 568.958V604.456M48.9091 568.958H94.3636M-42 604.456V639.953M3.45455 639.953H-42M3.45455 639.953V675.45M3.45455 639.953H48.9091M48.9091 604.456V639.953M48.9091 604.456H94.3636M-42 639.953V675.45M3.45455 675.45H-42M3.45455 675.45V710.948M3.45455 675.45H48.9091M48.9091 639.953V675.45M48.9091 639.953H94.3636M-42 675.45V710.948H3.45455M3.45455 710.948H48.9091M48.9091 675.45V710.948M48.9091 675.45H94.3636M48.9091 710.948H94.3636M94.3636 1V36.4974M94.3636 1H139.818M94.3636 36.4974V71.9948M94.3636 36.4974H139.818M94.3636 71.9948V107.492M94.3636 71.9948H139.818M94.3636 107.492V142.99M94.3636 107.492H139.818M94.3636 142.99V178.487M94.3636 142.99H139.818M94.3636 178.487V213.984M94.3636 178.487H139.818M94.3636 213.984V249.482M94.3636 213.984H139.818M94.3636 249.482V284.979M94.3636 249.482H139.818M94.3636 284.979V320.476M94.3636 284.979H139.818M94.3636 320.476V355.974M94.3636 320.476H139.818M94.3636 355.974V391.471M94.3636 355.974H139.818M94.3636 391.471V426.969M94.3636 391.471H139.818M94.3636 426.969V462.466M94.3636 426.969H139.818M94.3636 462.466V497.963M94.3636 462.466H139.818M94.3636 497.963V533.461M94.3636 497.963H139.818M94.3636 533.461V568.958M94.3636 533.461H139.818M94.3636 568.958V604.456M94.3636 568.958H139.818M94.3636 604.456V639.953M94.3636 604.456H139.818M94.3636 639.953V675.45M94.3636 639.953H139.818M94.3636 675.45V710.948M94.3636 675.45H139.818M94.3636 710.948H139.818M139.818 1V36.4974M139.818 1H185.273M139.818 36.4974V71.9948M139.818 36.4974H185.273M139.818 71.9948V107.492M139.818 71.9948H185.273M139.818 107.492V142.99M139.818 107.492H185.273M139.818 142.99V178.487M139.818 142.99H185.273M139.818 178.487V213.984M139.818 178.487H185.273M139.818 213.984V249.482M139.818 213.984H185.273M139.818 249.482V284.979M139.818 249.482H185.273M139.818 284.979V320.476M139.818 284.979H185.273M139.818 320.476V355.974M139.818 320.476H185.273M139.818 355.974V391.471M139.818 355.974H185.273M139.818 391.471V426.969M139.818 391.471H185.273M139.818 426.969V462.466M139.818 426.969H185.273M139.818 462.466V497.963M139.818 462.466H185.273M139.818 497.963V533.461M139.818 497.963H185.273M139.818 533.461V568.958M139.818 533.461H185.273M139.818 568.958V604.456M139.818 568.958H185.273M139.818 604.456V639.953M139.818 604.456H185.273M139.818 639.953V675.45M139.818 639.953H185.273M139.818 675.45V710.948M139.818 675.45H185.273M139.818 710.948H185.273M185.273 1V36.4974M185.273 1H230.727M185.273 36.4974V71.9948M185.273 36.4974H230.727M185.273 71.9948V107.492M185.273 71.9948H230.727M185.273 107.492V142.99M185.273 107.492H230.727M185.273 142.99V178.487M185.273 142.99H230.727M185.273 178.487V213.984M185.273 178.487H230.727M185.273 213.984V249.482M185.273 213.984H230.727M185.273 249.482V284.979M185.273 249.482H230.727M185.273 284.979V320.476M185.273 284.979H230.727M185.273 320.476V355.974M185.273 320.476H230.727M185.273 355.974V391.471M185.273 355.974H230.727M185.273 391.471V426.969M185.273 391.471H230.727M185.273 426.969V462.466M185.273 426.969H230.727M185.273 462.466V497.963M185.273 462.466H230.727M185.273 497.963V533.461M185.273 497.963H230.727M185.273 533.461V568.958M185.273 533.461H230.727M185.273 568.958V604.456M185.273 568.958H230.727M185.273 604.456V639.953M185.273 604.456H230.727M185.273 639.953V675.45M185.273 639.953H230.727M185.273 675.45V710.948M185.273 675.45H230.727M185.273 710.948H230.727M230.727 1V36.4974M230.727 1H276.182M230.727 36.4974V71.9948M230.727 36.4974H276.182M230.727 71.9948V107.492M230.727 71.9948H276.182M230.727 107.492V142.99M230.727 107.492H276.182M230.727 142.99V178.487M230.727 142.99H276.182M230.727 178.487V213.984M230.727 178.487H276.182M230.727 213.984V249.482M230.727 213.984H276.182M230.727 249.482V284.979M230.727 249.482H276.182M230.727 284.979V320.476M230.727 284.979H276.182M230.727 320.476V355.974M230.727 320.476H276.182M230.727 355.974V391.471M230.727 355.974H276.182M230.727 391.471V426.969M230.727 391.471H276.182M230.727 426.969V462.466M230.727 426.969H276.182M230.727 462.466V497.963M230.727 462.466H276.182M230.727 497.963V533.461M230.727 497.963H276.182M230.727 533.461V568.958M230.727 533.461H276.182M230.727 568.958V604.456M230.727 568.958H276.182M230.727 604.456V639.953M230.727 604.456H276.182M230.727 639.953V675.45M230.727 639.953H276.182M230.727 675.45V710.948M230.727 675.45H276.182M230.727 710.948H276.182M276.182 1V36.4974M276.182 1H321.636M276.182 36.4974V71.9948M276.182 36.4974H321.636M276.182 71.9948V107.492M276.182 71.9948H321.636M276.182 107.492V142.99M276.182 107.492H321.636M276.182 142.99V178.487M276.182 142.99H321.636M276.182 178.487V213.984M276.182 178.487H321.636M276.182 213.984V249.482M276.182 213.984H321.636M276.182 249.482V284.979M276.182 249.482H321.636M276.182 284.979V320.476M276.182 284.979H321.636M276.182 320.476V355.974M276.182 320.476H321.636M276.182 355.974V391.471M276.182 355.974H321.636M276.182 391.471V426.969M276.182 391.471H321.636M276.182 426.969V462.466M276.182 426.969H321.636M276.182 462.466V497.963M276.182 462.466H321.636M276.182 497.963V533.461M276.182 497.963H321.636M276.182 533.461V568.958M276.182 533.461H321.636M276.182 568.958V604.456M276.182 568.958H321.636M276.182 604.456V639.953M276.182 604.456H321.636M276.182 639.953V675.45M276.182 639.953H321.636M276.182 675.45V710.948M276.182 675.45H321.636M276.182 710.948H321.636M321.636 1V36.4974M321.636 1H367.091M321.636 36.4974V71.9948M321.636 36.4974H367.091M321.636 71.9948V107.492M321.636 71.9948H367.091M321.636 107.492V142.99M321.636 107.492H367.091M321.636 142.99V178.487M321.636 142.99H367.091M321.636 178.487V213.984M321.636 178.487H367.091M321.636 213.984V249.482M321.636 213.984H367.091M321.636 249.482V284.979M321.636 249.482H367.091M321.636 284.979V320.476M321.636 284.979H367.091M321.636 320.476V355.974M321.636 320.476H367.091M321.636 355.974V391.471M321.636 355.974H367.091M321.636 391.471V426.969M321.636 391.471H367.091M321.636 426.969V462.466M321.636 426.969H367.091M321.636 462.466V497.963M321.636 462.466H367.091M321.636 497.963V533.461M321.636 497.963H367.091M321.636 533.461V568.958M321.636 533.461H367.091M321.636 568.958V604.456M321.636 568.958H367.091M321.636 604.456V639.953M321.636 604.456H367.091M321.636 639.953V675.45M321.636 639.953H367.091M321.636 675.45V710.948M321.636 675.45H367.091M321.636 710.948H367.091M367.091 1V36.4974M367.091 1H412.545M367.091 36.4974V71.9948M367.091 36.4974H412.545M367.091 71.9948V107.492M367.091 71.9948H412.545M367.091 107.492V142.99M367.091 107.492H412.545M367.091 142.99V178.487M367.091 142.99H412.545M367.091 178.487V213.984M367.091 178.487H412.545M367.091 213.984V249.482M367.091 213.984H412.545M367.091 249.482V284.979M367.091 249.482H412.545M367.091 284.979V320.476M367.091 284.979H412.545M367.091 320.476V355.974M367.091 320.476H412.545M367.091 355.974V391.471M367.091 355.974H412.545M367.091 391.471V426.969M367.091 391.471H412.545M367.091 426.969V462.466M367.091 426.969H412.545M367.091 462.466V497.963M367.091 462.466H412.545M367.091 497.963V533.461M367.091 497.963H412.545M367.091 533.461V568.958M367.091 533.461H412.545M367.091 568.958V604.456M367.091 568.958H412.545M367.091 604.456V639.953M367.091 604.456H412.545M367.091 639.953V675.45M367.091 639.953H412.545M367.091 675.45V710.948M367.091 675.45H412.545M367.091 710.948H412.545M412.545 1V36.4974M412.545 1H458M412.545 36.4974V71.9948M412.545 36.4974H458M412.545 71.9948V107.492M412.545 71.9948H458M412.545 107.492V142.99M412.545 107.492H458M412.545 142.99V178.487M412.545 142.99H458M412.545 178.487V213.984M412.545 178.487H458M412.545 213.984V249.482M412.545 213.984H458M412.545 249.482V284.979M412.545 249.482H458M412.545 284.979V320.476M412.545 284.979H458M412.545 320.476V355.974M412.545 320.476H458M412.545 355.974V391.471M412.545 355.974H458M412.545 391.471V426.969M412.545 391.471H458M412.545 426.969V462.466M412.545 426.969H458M412.545 462.466V497.963M412.545 462.466H458M412.545 497.963V533.461M412.545 497.963H458M412.545 533.461V568.958M412.545 533.461H458M412.545 568.958V604.456M412.545 568.958H458M412.545 604.456V639.953M412.545 604.456H458M412.545 639.953V675.45M412.545 639.953H458M412.545 675.45V710.948M412.545 675.45H458M412.545 710.948H458M458 1V36.4974M458 1H503.455M458 36.4974V71.9948M458 36.4974H503.455M458 71.9948V107.492M458 71.9948H503.455M458 107.492V142.99M458 107.492H503.455M458 142.99V178.487M458 142.99H503.455M458 178.487V213.984M458 178.487H503.455M458 213.984V249.482M458 213.984H503.455M458 249.482V284.979M458 249.482H503.455M458 284.979V320.476M458 284.979H503.455M458 320.476V355.974M458 320.476H503.455M458 355.974V391.471M458 355.974H503.455M458 391.471V426.969M458 391.471H503.455M458 426.969V462.466M458 426.969H503.455M458 462.466V497.963M458 462.466H503.455M458 497.963V533.461M458 497.963H503.455M458 533.461V568.958M458 533.461H503.455M458 568.958V604.456M458 568.958H503.455M458 604.456V639.953M458 604.456H503.455M458 639.953V675.45M458 639.953H503.455M458 675.45V710.948M458 675.45H503.455M458 710.948H503.455M503.455 1V36.4974M503.455 1H548.909M503.455 36.4974V71.9948M503.455 36.4974H548.909M503.455 71.9948V107.492M503.455 71.9948H548.909M503.455 107.492V142.99M503.455 107.492H548.909M503.455 142.99V178.487M503.455 142.99H548.909M503.455 178.487V213.984M503.455 178.487H548.909M503.455 213.984V249.482M503.455 213.984H548.909M503.455 249.482V284.979M503.455 249.482H548.909M503.455 284.979V320.476M503.455 284.979H548.909M503.455 320.476V355.974M503.455 320.476H548.909M503.455 355.974V391.471M503.455 355.974H548.909M503.455 391.471V426.969M503.455 391.471H548.909M503.455 426.969V462.466M503.455 426.969H548.909M503.455 462.466V497.963M503.455 462.466H548.909M503.455 497.963V533.461M503.455 497.963H548.909M503.455 533.461V568.958M503.455 533.461H548.909M503.455 568.958V604.456M503.455 568.958H548.909M503.455 604.456V639.953M503.455 604.456H548.909M503.455 639.953V675.45M503.455 639.953H548.909M503.455 675.45V710.948M503.455 675.45H548.909M503.455 710.948H548.909M548.909 1V36.4974M548.909 1H594.364M548.909 36.4974V71.9948M548.909 36.4974H594.364M548.909 71.9948V107.492M548.909 71.9948H594.364M548.909 107.492V142.99M548.909 107.492H594.364M548.909 142.99V178.487M548.909 142.99H594.364M548.909 178.487V213.984M548.909 178.487H594.364M548.909 213.984V249.482M548.909 213.984H594.364M548.909 249.482V284.979M548.909 249.482H594.364M548.909 284.979V320.476M548.909 284.979H594.364M548.909 320.476V355.974M548.909 320.476H594.364M548.909 355.974V391.471M548.909 355.974H594.364M548.909 391.471V426.969M548.909 391.471H594.364M548.909 426.969V462.466M548.909 426.969H594.364M548.909 462.466V497.963M548.909 462.466H594.364M548.909 497.963V533.461M548.909 497.963H594.364M548.909 533.461V568.958M548.909 533.461H594.364M548.909 568.958V604.456M548.909 568.958H594.364M548.909 604.456V639.953M548.909 604.456H594.364M548.909 639.953V675.45M548.909 639.953H594.364M548.909 675.45V710.948M548.909 675.45H594.364M548.909 710.948H594.364M594.364 1V36.4974M594.364 1H639.818M594.364 36.4974V71.9948M594.364 36.4974H639.818M594.364 71.9948V107.492M594.364 71.9948H639.818M594.364 107.492V142.99M594.364 107.492H639.818M594.364 142.99V178.487M594.364 142.99H639.818M594.364 178.487V213.984M594.364 178.487H639.818M594.364 213.984V249.482M594.364 213.984H639.818M594.364 249.482V284.979M594.364 249.482H639.818M594.364 284.979V320.476M594.364 284.979H639.818M594.364 320.476V355.974M594.364 320.476H639.818M594.364 355.974V391.471M594.364 355.974H639.818M594.364 391.471V426.969M594.364 391.471H639.818M594.364 426.969V462.466M594.364 426.969H639.818M594.364 462.466V497.963M594.364 462.466H639.818M594.364 497.963V533.461M594.364 497.963H639.818M594.364 533.461V568.958M594.364 533.461H639.818M594.364 568.958V604.456M594.364 568.958H639.818M594.364 604.456V639.953M594.364 604.456H639.818M594.364 639.953V675.45M594.364 639.953H639.818M594.364 675.45V710.948M594.364 675.45H639.818M594.364 710.948H639.818M639.818 1V36.4974M639.818 1H685.273M639.818 36.4974V71.9948M639.818 36.4974H685.273M639.818 71.9948V107.492M639.818 71.9948H685.273M639.818 107.492V142.99M639.818 107.492H685.273M639.818 142.99V178.487M639.818 142.99H685.273M639.818 178.487V213.984M639.818 178.487H685.273M639.818 213.984V249.482M639.818 213.984H685.273M639.818 249.482V284.979M639.818 249.482H685.273M639.818 284.979V320.476M639.818 284.979H685.273M639.818 320.476V355.974M639.818 320.476H685.273M639.818 355.974V391.471M639.818 355.974H685.273M639.818 391.471V426.969M639.818 391.471H685.273M639.818 426.969V462.466M639.818 426.969H685.273M639.818 462.466V497.963M639.818 462.466H685.273M639.818 497.963V533.461M639.818 497.963H685.273M639.818 533.461V568.958M639.818 533.461H685.273M639.818 568.958V604.456M639.818 568.958H685.273M639.818 604.456V639.953M639.818 604.456H685.273M639.818 639.953V675.45M639.818 639.953H685.273M639.818 675.45V710.948M639.818 675.45H685.273M639.818 710.948H685.273M685.273 1V36.4974M685.273 1H730.727M685.273 36.4974V71.9948M685.273 36.4974H730.727M685.273 71.9948V107.492M685.273 71.9948H730.727M685.273 107.492V142.99M685.273 107.492H730.727M685.273 142.99V178.487M685.273 142.99H730.727M685.273 178.487V213.984M685.273 178.487H730.727M685.273 213.984V249.482M685.273 213.984H730.727M685.273 249.482V284.979M685.273 249.482H730.727M685.273 284.979V320.476M685.273 284.979H730.727M685.273 320.476V355.974M685.273 320.476H730.727M685.273 355.974V391.471M685.273 355.974H730.727M685.273 391.471V426.969M685.273 391.471H730.727M685.273 426.969V462.466M685.273 426.969H730.727M685.273 462.466V497.963M685.273 462.466H730.727M685.273 497.963V533.461M685.273 497.963H730.727M685.273 533.461V568.958M685.273 533.461H730.727M685.273 568.958V604.456M685.273 568.958H730.727M685.273 604.456V639.953M685.273 604.456H730.727M685.273 639.953V675.45M685.273 639.953H730.727M685.273 675.45V710.948M685.273 675.45H730.727M685.273 710.948H730.727M730.727 1V36.4974M730.727 1H776.182M730.727 36.4974V71.9948M730.727 36.4974H776.182M730.727 71.9948V107.492M730.727 71.9948H776.182M730.727 107.492V142.99M730.727 107.492H776.182M730.727 142.99V178.487M730.727 142.99H776.182M730.727 178.487V213.984M730.727 178.487H776.182M730.727 213.984V249.482M730.727 213.984H776.182M730.727 249.482V284.979M730.727 249.482H776.182M730.727 284.979V320.476M730.727 284.979H776.182M730.727 320.476V355.974M730.727 320.476H776.182M730.727 355.974V391.471M730.727 355.974H776.182M730.727 391.471V426.969M730.727 391.471H776.182M730.727 426.969V462.466M730.727 426.969H776.182M730.727 462.466V497.963M730.727 462.466H776.182M730.727 497.963V533.461M730.727 497.963H776.182M730.727 533.461V568.958M730.727 533.461H776.182M730.727 568.958V604.456M730.727 568.958H776.182M730.727 604.456V639.953M730.727 604.456H776.182M730.727 639.953V675.45M730.727 639.953H776.182M730.727 675.45V710.948M730.727 675.45H776.182M730.727 710.948H776.182M776.182 1V36.4974M776.182 1H821.636M776.182 36.4974V71.9948M776.182 36.4974H821.636M776.182 71.9948V107.492M776.182 71.9948H821.636M776.182 107.492V142.99M776.182 107.492H821.636M776.182 142.99V178.487M776.182 142.99H821.636M776.182 178.487V213.984M776.182 178.487H821.636M776.182 213.984V249.482M776.182 213.984H821.636M776.182 249.482V284.979M776.182 249.482H821.636M776.182 284.979V320.476M776.182 284.979H821.636M776.182 320.476V355.974M776.182 320.476H821.636M776.182 355.974V391.471M776.182 355.974H821.636M776.182 391.471V426.969M776.182 391.471H821.636M776.182 426.969V462.466M776.182 426.969H821.636M776.182 462.466V497.963M776.182 462.466H821.636M776.182 497.963V533.461M776.182 497.963H821.636M776.182 533.461V568.958M776.182 533.461H821.636M776.182 568.958V604.456M776.182 568.958H821.636M776.182 604.456V639.953M776.182 604.456H821.636M776.182 639.953V675.45M776.182 639.953H821.636M776.182 675.45V710.948M776.182 675.45H821.636M776.182 710.948H821.636M821.636 1V36.4974M821.636 1H867.091M821.636 36.4974V71.9948M821.636 36.4974H867.091M821.636 71.9948V107.492M821.636 71.9948H867.091M821.636 107.492V142.99M821.636 107.492H867.091M821.636 142.99V178.487M821.636 142.99H867.091M821.636 178.487V213.984M821.636 178.487H867.091M821.636 213.984V249.482M821.636 213.984H867.091M821.636 249.482V284.979M821.636 249.482H867.091M821.636 284.979V320.476M821.636 284.979H867.091M821.636 320.476V355.974M821.636 320.476H867.091M821.636 355.974V391.471M821.636 355.974H867.091M821.636 391.471V426.969M821.636 391.471H867.091M821.636 426.969V462.466M821.636 426.969H867.091M821.636 462.466V497.963M821.636 462.466H867.091M821.636 497.963V533.461M821.636 497.963H867.091M821.636 533.461V568.958M821.636 533.461H867.091M821.636 568.958V604.456M821.636 568.958H867.091M821.636 604.456V639.953M821.636 604.456H867.091M821.636 639.953V675.45M821.636 639.953H867.091M821.636 675.45V710.948M821.636 675.45H867.091M821.636 710.948H867.091M867.091 1V36.4974M867.091 1H912.545M867.091 36.4974V71.9948M867.091 36.4974H912.545M867.091 71.9948V107.492M867.091 71.9948H912.545M867.091 107.492V142.99M867.091 107.492H912.545M867.091 142.99V178.487M867.091 142.99H912.545M867.091 178.487V213.984M867.091 178.487H912.545M867.091 213.984V249.482M867.091 213.984H912.545M867.091 249.482V284.979M867.091 249.482H912.545M867.091 284.979V320.476M867.091 284.979H912.545M867.091 320.476V355.974M867.091 320.476H912.545M867.091 355.974V391.471M867.091 355.974H912.545M867.091 391.471V426.969M867.091 391.471H912.545M867.091 426.969V462.466M867.091 426.969H912.545M867.091 462.466V497.963M867.091 462.466H912.545M867.091 497.963V533.461M867.091 497.963H912.545M867.091 533.461V568.958M867.091 533.461H912.545M867.091 568.958V604.456M867.091 568.958H912.545M867.091 604.456V639.953M867.091 604.456H912.545M867.091 639.953V675.45M867.091 639.953H912.545M867.091 675.45V710.948M867.091 675.45H912.545M867.091 710.948H912.545M912.545 1V36.4974M912.545 1H958M912.545 36.4974V71.9948M912.545 36.4974H958M912.545 71.9948V107.492M912.545 71.9948H958M912.545 107.492V142.99M912.545 107.492H958M912.545 142.99V178.487M912.545 142.99H958M912.545 178.487V213.984M912.545 178.487H958M912.545 213.984V249.482M912.545 213.984H958M912.545 249.482V284.979M912.545 249.482H958M912.545 284.979V320.476M912.545 284.979H958M912.545 320.476V355.974M912.545 320.476H958M912.545 355.974V391.471M912.545 355.974H958M912.545 391.471V426.969M912.545 391.471H958M912.545 426.969V462.466M912.545 426.969H958M912.545 462.466V497.963M912.545 462.466H958M912.545 497.963V533.461M912.545 497.963H958M912.545 533.461V568.958M912.545 533.461H958M912.545 568.958V604.456M912.545 568.958H958M912.545 604.456V639.953M912.545 604.456H958M912.545 639.953V675.45M912.545 639.953H958M912.545 675.45V710.948M912.545 675.45H958M912.545 710.948H958M958 1V36.4974M958 1H1003.45M958 36.4974V71.9948M958 36.4974H1003.45M958 71.9948V107.492M958 71.9948H1003.45M958 107.492V142.99M958 107.492H1003.45M958 142.99V178.487M958 142.99H1003.45M958 178.487V213.984M958 178.487H1003.45M958 213.984V249.482M958 213.984H1003.45M958 249.482V284.979M958 249.482H1003.45M958 284.979V320.476M958 284.979H1003.45M958 320.476V355.974M958 320.476H1003.45M958 355.974V391.471M958 355.974H1003.45M958 391.471V426.969M958 391.471H1003.45M958 426.969V462.466M958 426.969H1003.45M958 462.466V497.963M958 462.466H1003.45M958 497.963V533.461M958 497.963H1003.45M958 533.461V568.958M958 533.461H1003.45M958 568.958V604.456M958 568.958H1003.45M958 604.456V639.953M958 604.456H1003.45M958 639.953V675.45M958 639.953H1003.45M958 675.45V710.948M958 675.45H1003.45M958 710.948H1003.45M1003.45 1V36.4974M1003.45 1H1048.91M1003.45 36.4974V71.9948M1003.45 36.4974H1048.91M1003.45 71.9948V107.492M1003.45 71.9948H1048.91M1003.45 107.492V142.99M1003.45 107.492H1048.91M1003.45 142.99V178.487M1003.45 142.99H1048.91M1003.45 178.487V213.984M1003.45 178.487H1048.91M1003.45 213.984V249.482M1003.45 213.984H1048.91M1003.45 249.482V284.979M1003.45 249.482H1048.91M1003.45 284.979V320.476M1003.45 284.979H1048.91M1003.45 320.476V355.974M1003.45 320.476H1048.91M1003.45 355.974V391.471M1003.45 355.974H1048.91M1003.45 391.471V426.969M1003.45 391.471H1048.91M1003.45 426.969V462.466M1003.45 426.969H1048.91M1003.45 462.466V497.963M1003.45 462.466H1048.91M1003.45 497.963V533.461M1003.45 497.963H1048.91M1003.45 533.461V568.958M1003.45 533.461H1048.91M1003.45 568.958V604.456M1003.45 568.958H1048.91M1003.45 604.456V639.953M1003.45 604.456H1048.91M1003.45 639.953V675.45M1003.45 639.953H1048.91M1003.45 675.45V710.948M1003.45 675.45H1048.91M1003.45 710.948H1048.91M1048.91 1V36.4974M1048.91 1H1094.36M1048.91 36.4974V71.9948M1048.91 36.4974H1094.36M1048.91 71.9948V107.492M1048.91 71.9948H1094.36M1048.91 107.492V142.99M1048.91 107.492H1094.36M1048.91 142.99V178.487M1048.91 142.99H1094.36M1048.91 178.487V213.984M1048.91 178.487H1094.36M1048.91 213.984V249.482M1048.91 213.984H1094.36M1048.91 249.482V284.979M1048.91 249.482H1094.36M1048.91 284.979V320.476M1048.91 284.979H1094.36M1048.91 320.476V355.974M1048.91 320.476H1094.36M1048.91 355.974V391.471M1048.91 355.974H1094.36M1048.91 391.471V426.969M1048.91 391.471H1094.36M1048.91 426.969V462.466M1048.91 426.969H1094.36M1048.91 462.466V497.963M1048.91 462.466H1094.36M1048.91 497.963V533.461M1048.91 497.963H1094.36M1048.91 533.461V568.958M1048.91 533.461H1094.36M1048.91 568.958V604.456M1048.91 568.958H1094.36M1048.91 604.456V639.953M1048.91 604.456H1094.36M1048.91 639.953V675.45M1048.91 639.953H1094.36M1048.91 675.45V710.948M1048.91 675.45H1094.36M1048.91 710.948H1094.36M1094.36 1V36.4974M1094.36 1H1139.82M1094.36 36.4974V71.9948M1094.36 36.4974H1139.82M1094.36 71.9948V107.492M1094.36 71.9948H1139.82M1094.36 107.492V142.99M1094.36 107.492H1139.82M1094.36 142.99V178.487M1094.36 142.99H1139.82M1094.36 178.487V213.984M1094.36 178.487H1139.82M1094.36 213.984V249.482M1094.36 213.984H1139.82M1094.36 249.482V284.979M1094.36 249.482H1139.82M1094.36 284.979V320.476M1094.36 284.979H1139.82M1094.36 320.476V355.974M1094.36 320.476H1139.82M1094.36 355.974V391.471M1094.36 355.974H1139.82M1094.36 391.471V426.969M1094.36 391.471H1139.82M1094.36 426.969V462.466M1094.36 426.969H1139.82M1094.36 462.466V497.963M1094.36 462.466H1139.82M1094.36 497.963V533.461M1094.36 497.963H1139.82M1094.36 533.461V568.958M1094.36 533.461H1139.82M1094.36 568.958V604.456M1094.36 568.958H1139.82M1094.36 604.456V639.953M1094.36 604.456H1139.82M1094.36 639.953V675.45M1094.36 639.953H1139.82M1094.36 675.45V710.948M1094.36 675.45H1139.82M1094.36 710.948H1139.82M1139.82 1V36.4974M1139.82 1H1185.27M1139.82 36.4974V71.9948M1139.82 36.4974H1185.27M1139.82 71.9948V107.492M1139.82 71.9948H1185.27M1139.82 107.492V142.99M1139.82 107.492H1185.27M1139.82 142.99V178.487M1139.82 142.99H1185.27M1139.82 178.487V213.984M1139.82 178.487H1185.27M1139.82 213.984V249.482M1139.82 213.984H1185.27M1139.82 249.482V284.979M1139.82 249.482H1185.27M1139.82 284.979V320.476M1139.82 284.979H1185.27M1139.82 320.476V355.974M1139.82 320.476H1185.27M1139.82 355.974V391.471M1139.82 355.974H1185.27M1139.82 391.471V426.969M1139.82 391.471H1185.27M1139.82 426.969V462.466M1139.82 426.969H1185.27M1139.82 462.466V497.963M1139.82 462.466H1185.27M1139.82 497.963V533.461M1139.82 497.963H1185.27M1139.82 533.461V568.958M1139.82 533.461H1185.27M1139.82 568.958V604.456M1139.82 568.958H1185.27M1139.82 604.456V639.953M1139.82 604.456H1185.27M1139.82 639.953V675.45M1139.82 639.953H1185.27M1139.82 675.45V710.948M1139.82 675.45H1185.27M1139.82 710.948H1185.27M1185.27 1V36.4974M1185.27 1H1230.73M1185.27 36.4974V71.9948M1185.27 36.4974H1230.73M1185.27 71.9948V107.492M1185.27 71.9948H1230.73M1185.27 107.492V142.99M1185.27 107.492H1230.73M1185.27 142.99V178.487M1185.27 142.99H1230.73M1185.27 178.487V213.984M1185.27 178.487H1230.73M1185.27 213.984V249.482M1185.27 213.984H1230.73M1185.27 249.482V284.979M1185.27 249.482H1230.73M1185.27 284.979V320.476M1185.27 284.979H1230.73M1185.27 320.476V355.974M1185.27 320.476H1230.73M1185.27 355.974V391.471M1185.27 355.974H1230.73M1185.27 391.471V426.969M1185.27 391.471H1230.73M1185.27 426.969V462.466M1185.27 426.969H1230.73M1185.27 462.466V497.963M1185.27 462.466H1230.73M1185.27 497.963V533.461M1185.27 497.963H1230.73M1185.27 533.461V568.958M1185.27 533.461H1230.73M1185.27 568.958V604.456M1185.27 568.958H1230.73M1185.27 604.456V639.953M1185.27 604.456H1230.73M1185.27 639.953V675.45M1185.27 639.953H1230.73M1185.27 675.45V710.948M1185.27 675.45H1230.73M1185.27 710.948H1230.73M1230.73 1V36.4974M1230.73 1H1276.18M1230.73 36.4974V71.9948M1230.73 36.4974H1276.18M1230.73 71.9948V107.492M1230.73 71.9948H1276.18M1230.73 107.492V142.99M1230.73 107.492H1276.18M1230.73 142.99V178.487M1230.73 142.99H1276.18M1230.73 178.487V213.984M1230.73 178.487H1276.18M1230.73 213.984V249.482M1230.73 213.984H1276.18M1230.73 249.482V284.979M1230.73 249.482H1276.18M1230.73 284.979V320.476M1230.73 284.979H1276.18M1230.73 320.476V355.974M1230.73 320.476H1276.18M1230.73 355.974V391.471M1230.73 355.974H1276.18M1230.73 391.471V426.969M1230.73 391.471H1276.18M1230.73 426.969V462.466M1230.73 426.969H1276.18M1230.73 462.466V497.963M1230.73 462.466H1276.18M1230.73 497.963V533.461M1230.73 497.963H1276.18M1230.73 533.461V568.958M1230.73 533.461H1276.18M1230.73 568.958V604.456M1230.73 568.958H1276.18M1230.73 604.456V639.953M1230.73 604.456H1276.18M1230.73 639.953V675.45M1230.73 639.953H1276.18M1230.73 675.45V710.948M1230.73 675.45H1276.18M1230.73 710.948H1276.18M1276.18 1V36.4974M1276.18 1H1321.64M1276.18 36.4974V71.9948M1276.18 36.4974H1321.64M1276.18 71.9948V107.492M1276.18 71.9948H1321.64M1276.18 107.492V142.99M1276.18 107.492H1321.64M1276.18 142.99V178.487M1276.18 142.99H1321.64M1276.18 178.487V213.984M1276.18 178.487H1321.64M1276.18 213.984V249.482M1276.18 213.984H1321.64M1276.18 249.482V284.979M1276.18 249.482H1321.64M1276.18 284.979V320.476M1276.18 284.979H1321.64M1276.18 320.476V355.974M1276.18 320.476H1321.64M1276.18 355.974V391.471M1276.18 355.974H1321.64M1276.18 391.471V426.969M1276.18 391.471H1321.64M1276.18 426.969V462.466M1276.18 426.969H1321.64M1276.18 462.466V497.963M1276.18 462.466H1321.64M1276.18 497.963V533.461M1276.18 497.963H1321.64M1276.18 533.461V568.958M1276.18 533.461H1321.64M1276.18 568.958V604.456M1276.18 568.958H1321.64M1276.18 604.456V639.953M1276.18 604.456H1321.64M1276.18 639.953V675.45M1276.18 639.953H1321.64M1276.18 675.45V710.948M1276.18 675.45H1321.64M1276.18 710.948H1321.64M1321.64 1V36.4974M1321.64 1H1367.09M1321.64 36.4974V71.9948M1321.64 36.4974H1367.09M1321.64 71.9948V107.492M1321.64 71.9948H1367.09M1321.64 107.492V142.99M1321.64 107.492H1367.09M1321.64 142.99V178.487M1321.64 142.99H1367.09M1321.64 178.487V213.984M1321.64 178.487H1367.09M1321.64 213.984V249.482M1321.64 213.984H1367.09M1321.64 249.482V284.979M1321.64 249.482H1367.09M1321.64 284.979V320.476M1321.64 284.979H1367.09M1321.64 320.476V355.974M1321.64 320.476H1367.09M1321.64 355.974V391.471M1321.64 355.974H1367.09M1321.64 391.471V426.969M1321.64 391.471H1367.09M1321.64 426.969V462.466M1321.64 426.969H1367.09M1321.64 462.466V497.963M1321.64 462.466H1367.09M1321.64 497.963V533.461M1321.64 497.963H1367.09M1321.64 533.461V568.958M1321.64 533.461H1367.09M1321.64 568.958V604.456M1321.64 568.958H1367.09M1321.64 604.456V639.953M1321.64 604.456H1367.09M1321.64 639.953V675.45M1321.64 639.953H1367.09M1321.64 675.45V710.948M1321.64 675.45H1367.09M1321.64 710.948H1367.09M1367.09 1V36.4974M1367.09 1H1412.55M1367.09 36.4974V71.9948M1367.09 36.4974H1412.55M1367.09 71.9948V107.492M1367.09 71.9948H1412.55M1367.09 107.492V142.99M1367.09 107.492H1412.55M1367.09 142.99V178.487M1367.09 142.99H1412.55M1367.09 178.487V213.984M1367.09 178.487H1412.55M1367.09 213.984V249.482M1367.09 213.984H1412.55M1367.09 249.482V284.979M1367.09 249.482H1412.55M1367.09 284.979V320.476M1367.09 284.979H1412.55M1367.09 320.476V355.974M1367.09 320.476H1412.55M1367.09 355.974V391.471M1367.09 355.974H1412.55M1367.09 391.471V426.969M1367.09 391.471H1412.55M1367.09 426.969V462.466M1367.09 426.969H1412.55M1367.09 462.466V497.963M1367.09 462.466H1412.55M1367.09 497.963V533.461M1367.09 497.963H1412.55M1367.09 533.461V568.958M1367.09 533.461H1412.55M1367.09 568.958V604.456M1367.09 568.958H1412.55M1367.09 604.456V639.953M1367.09 604.456H1412.55M1367.09 639.953V675.45M1367.09 639.953H1412.55M1367.09 675.45V710.948M1367.09 675.45H1412.55M1367.09 710.948H1412.55M1412.55 1V36.4974M1412.55 1H1458M1412.55 36.4974V71.9948M1412.55 36.4974H1458M1412.55 71.9948V107.492M1412.55 71.9948H1458M1412.55 107.492V142.99M1412.55 107.492H1458M1412.55 142.99V178.487M1412.55 142.99H1458M1412.55 178.487V213.984M1412.55 178.487H1458M1412.55 213.984V249.482M1412.55 213.984H1458M1412.55 249.482V284.979M1412.55 249.482H1458M1412.55 284.979V320.476M1412.55 284.979H1458M1412.55 320.476V355.974M1412.55 320.476H1458M1412.55 355.974V391.471M1412.55 355.974H1458M1412.55 391.471V426.969M1412.55 391.471H1458M1412.55 426.969V462.466M1412.55 426.969H1458M1412.55 462.466V497.963M1412.55 462.466H1458M1412.55 497.963V533.461M1412.55 497.963H1458M1412.55 533.461V568.958M1412.55 533.461H1458M1412.55 568.958V604.456M1412.55 568.958H1458M1412.55 604.456V639.953M1412.55 604.456H1458M1412.55 639.953V675.45M1412.55 639.953H1458M1412.55 675.45V710.948M1412.55 675.45H1458M1412.55 710.948H1458M1458 1V36.4974M1458 1H1503.45M1458 36.4974V71.9948M1458 36.4974H1503.45M1458 71.9948V107.492M1458 71.9948H1503.45M1458 107.492V142.99M1458 107.492H1503.45M1458 142.99V178.487M1458 142.99H1503.45M1458 178.487V213.984M1458 178.487H1503.45M1458 213.984V249.482M1458 213.984H1503.45M1458 249.482V284.979M1458 249.482H1503.45M1458 284.979V320.476M1458 284.979H1503.45M1458 320.476V355.974M1458 320.476H1503.45M1458 355.974V391.471M1458 355.974H1503.45M1458 391.471V426.969M1458 391.471H1503.45M1458 426.969V462.466M1458 426.969H1503.45M1458 462.466V497.963M1458 462.466H1503.45M1458 497.963V533.461M1458 497.963H1503.45M1458 533.461V568.958M1458 533.461H1503.45M1458 568.958V604.456M1458 568.958H1503.45M1458 604.456V639.953M1458 604.456H1503.45M1458 639.953V675.45M1458 639.953H1503.45M1458 675.45V710.948M1458 675.45H1503.45M1458 710.948H1503.45M1503.45 1V36.4974M1503.45 1H1548.91M1503.45 36.4974V71.9948M1503.45 36.4974H1548.91M1503.45 71.9948V107.492M1503.45 71.9948H1548.91M1503.45 107.492V142.99M1503.45 107.492H1548.91M1503.45 142.99V178.487M1503.45 142.99H1548.91M1503.45 178.487V213.984M1503.45 178.487H1548.91M1503.45 213.984V249.482M1503.45 213.984H1548.91M1503.45 249.482V284.979M1503.45 249.482H1548.91M1503.45 284.979V320.476M1503.45 284.979H1548.91M1503.45 320.476V355.974M1503.45 320.476H1548.91M1503.45 355.974V391.471M1503.45 355.974H1548.91M1503.45 391.471V426.969M1503.45 391.471H1548.91M1503.45 426.969V462.466M1503.45 426.969H1548.91M1503.45 462.466V497.963M1503.45 462.466H1548.91M1503.45 497.963V533.461M1503.45 497.963H1548.91M1503.45 533.461V568.958M1503.45 533.461H1548.91M1503.45 568.958V604.456M1503.45 568.958H1548.91M1503.45 604.456V639.953M1503.45 604.456H1548.91M1503.45 639.953V675.45M1503.45 639.953H1548.91M1503.45 675.45V710.948M1503.45 675.45H1548.91M1503.45 710.948H1548.91M1548.91 1V36.4974M1548.91 1H1594.36M1548.91 36.4974V71.9948M1548.91 36.4974H1594.36M1548.91 71.9948V107.492M1548.91 71.9948H1594.36M1548.91 107.492V142.99M1548.91 107.492H1594.36M1548.91 142.99V178.487M1548.91 142.99H1594.36M1548.91 178.487V213.984M1548.91 178.487H1594.36M1548.91 213.984V249.482M1548.91 213.984H1594.36M1548.91 249.482V284.979M1548.91 249.482H1594.36M1548.91 284.979V320.476M1548.91 284.979H1594.36M1548.91 320.476V355.974M1548.91 320.476H1594.36M1548.91 355.974V391.471M1548.91 355.974H1594.36M1548.91 391.471V426.969M1548.91 391.471H1594.36M1548.91 426.969V462.466M1548.91 426.969H1594.36M1548.91 462.466V497.963M1548.91 462.466H1594.36M1548.91 497.963V533.461M1548.91 497.963H1594.36M1548.91 533.461V568.958M1548.91 533.461H1594.36M1548.91 568.958V604.456M1548.91 568.958H1594.36M1548.91 604.456V639.953M1548.91 604.456H1594.36M1548.91 639.953V675.45M1548.91 639.953H1594.36M1548.91 675.45V710.948M1548.91 675.45H1594.36M1548.91 710.948H1594.36M1594.36 1V36.4974M1594.36 1H1639.82M1594.36 36.4974V71.9948M1594.36 36.4974H1639.82M1594.36 71.9948V107.492M1594.36 71.9948H1639.82M1594.36 107.492V142.99M1594.36 107.492H1639.82M1594.36 142.99V178.487M1594.36 142.99H1639.82M1594.36 178.487V213.984M1594.36 178.487H1639.82M1594.36 213.984V249.482M1594.36 213.984H1639.82M1594.36 249.482V284.979M1594.36 249.482H1639.82M1594.36 284.979V320.476M1594.36 284.979H1639.82M1594.36 320.476V355.974M1594.36 320.476H1639.82M1594.36 355.974V391.471M1594.36 355.974H1639.82M1594.36 391.471V426.969M1594.36 391.471H1639.82M1594.36 426.969V462.466M1594.36 426.969H1639.82M1594.36 462.466V497.963M1594.36 462.466H1639.82M1594.36 497.963V533.461M1594.36 497.963H1639.82M1594.36 533.461V568.958M1594.36 533.461H1639.82M1594.36 568.958V604.456M1594.36 568.958H1639.82M1594.36 604.456V639.953M1594.36 604.456H1639.82M1594.36 639.953V675.45M1594.36 639.953H1639.82M1594.36 675.45V710.948M1594.36 675.45H1639.82M1594.36 710.948H1639.82M1639.82 1V36.4974M1639.82 1H1685.27M1639.82 36.4974V71.9948M1639.82 36.4974H1685.27M1639.82 71.9948V107.492M1639.82 71.9948H1685.27M1639.82 107.492V142.99M1639.82 107.492H1685.27M1639.82 142.99V178.487M1639.82 142.99H1685.27M1639.82 178.487V213.984M1639.82 178.487H1685.27M1639.82 213.984V249.482M1639.82 213.984H1685.27M1639.82 249.482V284.979M1639.82 249.482H1685.27M1639.82 284.979V320.476M1639.82 284.979H1685.27M1639.82 320.476V355.974M1639.82 320.476H1685.27M1639.82 355.974V391.471M1639.82 355.974H1685.27M1639.82 391.471V426.969M1639.82 391.471H1685.27M1639.82 426.969V462.466M1639.82 426.969H1685.27M1639.82 462.466V497.963M1639.82 462.466H1685.27M1639.82 497.963V533.461M1639.82 497.963H1685.27M1639.82 533.461V568.958M1639.82 533.461H1685.27M1639.82 568.958V604.456M1639.82 568.958H1685.27M1639.82 604.456V639.953M1639.82 604.456H1685.27M1639.82 639.953V675.45M1639.82 639.953H1685.27M1639.82 675.45V710.948M1639.82 675.45H1685.27M1639.82 710.948H1685.27M1685.27 1V36.4974M1685.27 1H1730.73M1685.27 36.4974V71.9948M1685.27 36.4974H1730.73M1685.27 71.9948V107.492M1685.27 71.9948H1730.73M1685.27 107.492V142.99M1685.27 107.492H1730.73M1685.27 142.99V178.487M1685.27 142.99H1730.73M1685.27 178.487V213.984M1685.27 178.487H1730.73M1685.27 213.984V249.482M1685.27 213.984H1730.73M1685.27 249.482V284.979M1685.27 249.482H1730.73M1685.27 284.979V320.476M1685.27 284.979H1730.73M1685.27 320.476V355.974M1685.27 320.476H1730.73M1685.27 355.974V391.471M1685.27 355.974H1730.73M1685.27 391.471V426.969M1685.27 391.471H1730.73M1685.27 426.969V462.466M1685.27 426.969H1730.73M1685.27 462.466V497.963M1685.27 462.466H1730.73M1685.27 497.963V533.461M1685.27 497.963H1730.73M1685.27 533.461V568.958M1685.27 533.461H1730.73M1685.27 568.958V604.456M1685.27 568.958H1730.73M1685.27 604.456V639.953M1685.27 604.456H1730.73M1685.27 639.953V675.45M1685.27 639.953H1730.73M1685.27 675.45V710.948M1685.27 675.45H1730.73M1685.27 710.948H1730.73M1730.73 1V36.4974M1730.73 1H1776.18M1730.73 36.4974V71.9948M1730.73 36.4974H1776.18M1730.73 71.9948V107.492M1730.73 71.9948H1776.18M1730.73 107.492V142.99M1730.73 107.492H1776.18M1730.73 142.99V178.487M1730.73 142.99H1776.18M1730.73 178.487V213.984M1730.73 178.487H1776.18M1730.73 213.984V249.482M1730.73 213.984H1776.18M1730.73 249.482V284.979M1730.73 249.482H1776.18M1730.73 284.979V320.476M1730.73 284.979H1776.18M1730.73 320.476V355.974M1730.73 320.476H1776.18M1730.73 355.974V391.471M1730.73 355.974H1776.18M1730.73 391.471V426.969M1730.73 391.471H1776.18M1730.73 426.969V462.466M1730.73 426.969H1776.18M1730.73 462.466V497.963M1730.73 462.466H1776.18M1730.73 497.963V533.461M1730.73 497.963H1776.18M1730.73 533.461V568.958M1730.73 533.461H1776.18M1730.73 568.958V604.456M1730.73 568.958H1776.18M1730.73 604.456V639.953M1730.73 604.456H1776.18M1730.73 639.953V675.45M1730.73 639.953H1776.18M1730.73 675.45V710.948M1730.73 675.45H1776.18M1730.73 710.948H1776.18M1776.18 1V36.4974M1776.18 1H1821.64M1776.18 36.4974V71.9948M1776.18 36.4974H1821.64M1776.18 71.9948V107.492M1776.18 71.9948H1821.64M1776.18 107.492V142.99M1776.18 107.492H1821.64M1776.18 142.99V178.487M1776.18 142.99H1821.64M1776.18 178.487V213.984M1776.18 178.487H1821.64M1776.18 213.984V249.482M1776.18 213.984H1821.64M1776.18 249.482V284.979M1776.18 249.482H1821.64M1776.18 284.979V320.476M1776.18 284.979H1821.64M1776.18 320.476V355.974M1776.18 320.476H1821.64M1776.18 355.974V391.471M1776.18 355.974H1821.64M1776.18 391.471V426.969M1776.18 391.471H1821.64M1776.18 426.969V462.466M1776.18 426.969H1821.64M1776.18 462.466V497.963M1776.18 462.466H1821.64M1776.18 497.963V533.461M1776.18 497.963H1821.64M1776.18 533.461V568.958M1776.18 533.461H1821.64M1776.18 568.958V604.456M1776.18 568.958H1821.64M1776.18 604.456V639.953M1776.18 604.456H1821.64M1776.18 639.953V675.45M1776.18 639.953H1821.64M1776.18 675.45V710.948M1776.18 675.45H1821.64M1776.18 710.948H1821.64M1821.64 1V36.4974M1821.64 1H1867.09M1821.64 36.4974V71.9948M1821.64 36.4974H1867.09M1821.64 71.9948V107.492M1821.64 71.9948H1867.09M1821.64 107.492V142.99M1821.64 107.492H1867.09M1821.64 142.99V178.487M1821.64 142.99H1867.09M1821.64 178.487V213.984M1821.64 178.487H1867.09M1821.64 213.984V249.482M1821.64 213.984H1867.09M1821.64 249.482V284.979M1821.64 249.482H1867.09M1821.64 284.979V320.476M1821.64 284.979H1867.09M1821.64 320.476V355.974M1821.64 320.476H1867.09M1821.64 355.974V391.471M1821.64 355.974H1867.09M1821.64 391.471V426.969M1821.64 391.471H1867.09M1821.64 426.969V462.466M1821.64 426.969H1867.09M1821.64 462.466V497.963M1821.64 462.466H1867.09M1821.64 497.963V533.461M1821.64 497.963H1867.09M1821.64 533.461V568.958M1821.64 533.461H1867.09M1821.64 568.958V604.456M1821.64 568.958H1867.09M1821.64 604.456V639.953M1821.64 604.456H1867.09M1821.64 639.953V675.45M1821.64 639.953H1867.09M1821.64 675.45V710.948M1821.64 675.45H1867.09M1821.64 710.948H1867.09M1867.09 1V36.4974M1867.09 1H1912.55M1867.09 36.4974V71.9948M1867.09 36.4974H1912.55M1867.09 71.9948V107.492M1867.09 71.9948H1912.55M1867.09 107.492V142.99M1867.09 107.492H1912.55M1867.09 142.99V178.487M1867.09 142.99H1912.55M1867.09 178.487V213.984M1867.09 178.487H1912.55M1867.09 213.984V249.482M1867.09 213.984H1912.55M1867.09 249.482V284.979M1867.09 249.482H1912.55M1867.09 284.979V320.476M1867.09 284.979H1912.55M1867.09 320.476V355.974M1867.09 320.476H1912.55M1867.09 355.974V391.471M1867.09 355.974H1912.55M1867.09 391.471V426.969M1867.09 391.471H1912.55M1867.09 426.969V462.466M1867.09 426.969H1912.55M1867.09 462.466V497.963M1867.09 462.466H1912.55M1867.09 497.963V533.461M1867.09 497.963H1912.55M1867.09 533.461V568.958M1867.09 533.461H1912.55M1867.09 568.958V604.456M1867.09 568.958H1912.55M1867.09 604.456V639.953M1867.09 604.456H1912.55M1867.09 639.953V675.45M1867.09 639.953H1912.55M1867.09 675.45V710.948M1867.09 675.45H1912.55M1867.09 710.948H1912.55M1912.55 1V36.4974M1912.55 1H1958V36.4974M1912.55 36.4974V71.9948M1912.55 36.4974H1958M1912.55 71.9948V107.492M1912.55 71.9948H1958M1912.55 107.492V142.99M1912.55 107.492H1958M1912.55 142.99V178.487M1912.55 142.99H1958M1912.55 178.487V213.984M1912.55 178.487H1958M1912.55 213.984V249.482M1912.55 213.984H1958M1912.55 249.482V284.979M1912.55 249.482H1958M1912.55 284.979V320.476M1912.55 284.979H1958M1912.55 320.476V355.974M1912.55 320.476H1958M1912.55 355.974V391.471M1912.55 355.974H1958M1912.55 391.471V426.969M1912.55 391.471H1958M1912.55 426.969V462.466M1912.55 426.969H1958M1912.55 462.466V497.963M1912.55 462.466H1958M1912.55 497.963V533.461M1912.55 497.963H1958M1912.55 533.461V568.958M1912.55 533.461H1958M1912.55 568.958V604.456M1912.55 568.958H1958M1912.55 604.456V639.953M1912.55 604.456H1958M1912.55 639.953V675.45M1912.55 639.953H1958M1912.55 675.45V710.948M1912.55 675.45H1958M1912.55 710.948H1958V675.45M1958 36.4974V71.9948M1958 71.9948V107.492M1958 107.492V142.99M1958 142.99V178.487M1958 178.487V213.984M1958 213.984V249.482M1958 249.482V284.979M1958 284.979V320.476M1958 320.476V355.974M1958 355.974V391.471M1958 391.471V426.969M1958 426.969V462.466M1958 462.466V497.963M1958 497.963V533.461M1958 533.461V568.958M1958 568.958V604.456M1958 604.456V639.953M1958 639.953V675.45" stroke="url(#paint0_radial_2148_829)" stroke-width="0.5"/>
<defs>
<radialGradient id="paint0_radial_2148_829" cx="0" cy="0" r="1" gradientUnits="userSpaceOnUse" gradientTransform="translate(958 355.974) rotate(90) scale(354.974 1000)">
<stop offset="0.329443" stop-color="#E7E7EF"/>
<stop offset="0.869558" stop-color="#E7E7EF" stop-opacity="0"/>
</radialGradient>
</defs>
</svg>
