<svg xmlns="http://www.w3.org/2000/svg" width="28" height="28" viewBox="0 0 28 28" fill="none">
    <path fill-rule="evenodd" clip-rule="evenodd"
        d="M3.7561 12.1539C4.22184 12.1539 4.66851 12.3484 4.99785 12.6946C5.32718 13.0408 5.5122 13.5104 5.5122 14C5.5122 14.4897 5.32718 14.9592 4.99785 15.3055C4.66851 15.6517 4.22184 15.8462 3.7561 15.8462C3.29035 15.8462 2.84368 15.6517 2.51435 15.3055C2.18502 14.9592 2 14.4897 2 14C2 13.5104 2.18502 13.0408 2.51435 12.6946C2.84368 12.3484 3.29035 12.1539 3.7561 12.1539ZM24.8281 12.7693C25.4755 12.7693 26 13.3157 26 14C26 14.68 25.479 15.2308 24.8281 15.2308H8.4402C8.28627 15.2313 8.13377 15.1998 7.99145 15.1381C7.84914 15.0765 7.71981 14.9858 7.61092 14.8715C7.50202 14.7571 7.41569 14.6212 7.35689 14.4717C7.29809 14.3221 7.26798 14.1618 7.26829 14C7.26829 13.32 7.78927 12.7693 8.4402 12.7693H24.8281Z"
        fill="currentColor" />
    <path fill-rule="evenodd" clip-rule="evenodd"
        d="M3.7561 20C4.22184 20 4.66851 20.1945 4.99785 20.5407C5.32718 20.8869 5.5122 21.3565 5.5122 21.8462C5.5122 22.3358 5.32718 22.8054 4.99785 23.1516C4.66851 23.4978 4.22184 23.6923 3.7561 23.6923C3.29035 23.6923 2.84368 23.4978 2.51435 23.1516C2.18502 22.8054 2 22.3358 2 21.8462C2 21.3565 2.18502 20.8869 2.51435 20.5407C2.84368 20.1945 3.29035 20 3.7561 20ZM24.8281 20.6154C25.4755 20.6154 26 21.1618 26 21.8462C26 22.5262 25.479 23.0769 24.8281 23.0769H8.4402C8.28627 23.0774 8.13377 23.0459 7.99145 22.9843C7.84914 22.9226 7.71981 22.832 7.61092 22.7176C7.50202 22.6032 7.41569 22.4674 7.35689 22.3178C7.29809 22.1683 7.26798 22.008 7.26829 21.8462C7.26829 21.1662 7.78927 20.6154 8.4402 20.6154H24.8281Z"
        fill="currentColor" />
    <path fill-rule="evenodd" clip-rule="evenodd"
        d="M3.7561 4C4.22184 4 4.66851 4.1945 4.99785 4.54073C5.32718 4.88695 5.5122 5.35652 5.5122 5.84615C5.5122 6.33578 5.32718 6.80536 4.99785 7.15158C4.66851 7.4978 4.22184 7.69231 3.7561 7.69231C3.29035 7.69231 2.84368 7.4978 2.51435 7.15158C2.18502 6.80536 2 6.33578 2 5.84615C2 5.35652 2.18502 4.88695 2.51435 4.54073C2.84368 4.1945 3.29035 4 3.7561 4ZM24.8281 4.61538C25.4755 4.61538 26 5.16185 26 5.84615C26 6.52615 25.479 7.07692 24.8281 7.07692H8.4402C8.28627 7.07741 8.13377 7.04592 7.99145 6.98425C7.84914 6.92259 7.71981 6.83197 7.61092 6.7176C7.50202 6.60323 7.41569 6.46737 7.35689 6.31782C7.29809 6.16827 7.26798 6.00798 7.26829 5.84615C7.26829 5.16615 7.78927 4.61538 8.4402 4.61538H24.8281Z"
        fill="currentColor" />
</svg>