<svg xmlns="http://www.w3.org/2000/svg" width="24" height="24" viewBox="0 0 24 24" fill="none">
    <path
        d="M8.70109 6.0667C8.63059 6.02376 8.5503 6.00075 8.46835 6.00002C8.3864 5.99928 8.30573 6.02084 8.23452 6.06251C8.16331 6.10418 8.1041 6.16447 8.06291 6.23726C8.02172 6.31005 8.00001 6.39274 8 6.47693V17.5231C8.00001 17.6073 8.02172 17.69 8.06291 17.7627C8.1041 17.8355 8.16331 17.8958 8.23452 17.9375C8.30573 17.9792 8.3864 18.0007 8.46835 18C8.5503 17.9992 8.63059 17.9762 8.70109 17.9333L17.7726 12.4102C17.8419 12.368 17.8993 12.308 17.9392 12.236C17.979 12.1641 18 12.0828 18 12C18 11.9172 17.979 11.8359 17.9392 11.764C17.8993 11.692 17.8419 11.632 17.7726 11.5898L8.70109 6.0667Z"
        fill="currentColor" stroke="currentColor" stroke-width="1.5" stroke-linecap="round"
        stroke-linejoin="round" />
</svg>